<?xml version="1.0" standalone="no"?>
<!DOCTYPE svg PUBLIC "-//W3C//DTD SVG 1.1//EN" "http://www.w3.org/Graphics/SVG/1.1/DTD/svg11.dtd" >
<svg xmlns="http://www.w3.org/2000/svg">
  <metadata>Created by iconfont</metadata>
  <defs>
  <font id="iconfont" horiz-adv-x="1024">
    <font-face
      font-family="iconfont"
      font-weight="400"
      font-stretch="normal"
      units-per-em="1024"
      ascent="896"
      descent="-128"
    />
      <missing-glyph />
      
      <glyph glyph-name="shengdantubiao-06" unicode="&#58988;" d="M984.288-75.184L837.568 96H896a31.984 31.984 0 0 1 24.272 52.816L773.568 320H832a31.984 31.984 0 0 1 24.272 52.816L709.568 544H768a32.016 32.016 0 0 1 23.904 53.248l-256 288a31.952 31.952 0 0 1-47.808 0l-256-288A32.016 32.016 0 0 1 256 544h58.432l-146.72-171.184a31.952 31.952 0 0 1-4.784-34.192A32.016 32.016 0 0 1 192 320h58.432l-146.72-171.184a31.952 31.952 0 0 1-4.784-34.192A32.016 32.016 0 0 1 128 96h58.432l-146.72-171.184a31.952 31.952 0 0 1-4.784-34.192A32.016 32.016 0 0 1 64-128h896a31.984 31.984 0 0 1 24.288 52.816zM989.056-109.376a31.952 31.952 0 0 1-4.784 34.192L837.568 96H896a31.984 31.984 0 0 1 24.272 52.816L773.568 320H832a31.984 31.984 0 0 1 24.272 52.816L709.568 544H768a32.016 32.016 0 0 1 23.904 53.248L542.128 878.288C523.44 889.312 512 896 512 896l192-1024h256c12.496 0 23.84 7.28 29.056 18.624zM672 256m-96 0a96 96 0 1 1 192 0 96 96 0 1 1-192 0ZM672 160c-47.568 0-86.752 34.624-94.368 80A92.56 92.56 0 0 1 576 224c0-53.04 42.976-96 96-96s96 42.96 96 96c0 5.472-0.72 10.784-1.632 16-7.616-45.376-46.8-80-94.368-80zM672 224c-37.84 0-71.472 16.72-94.912 42.816-0.4-3.6-1.088-7.136-1.088-10.816 0-53.04 42.976-96 96-96s96 42.96 96 96c0 3.68-0.688 7.216-1.088 10.816C743.472 240.72 709.84 224 672 224zM448 576m-96 0a96 96 0 1 1 192 0 96 96 0 1 1-192 0ZM448 480c-47.568 0-86.752 34.624-94.368 80A92.56 92.56 0 0 1 352 544c0-53.04 42.976-96 96-96s96 42.96 96 96c0 5.472-0.72 10.784-1.632 16-7.616-45.376-46.8-80-94.368-80zM448 544c-37.84 0-71.472 16.72-94.912 42.816-0.4-3.6-1.088-7.136-1.088-10.816 0-53.04 42.976-96 96-96s96 42.96 96 96c0 3.68-0.688 7.216-1.088 10.816C519.472 560.72 485.84 544 448 544zM352 64m-96 0a96 96 0 1 1 192 0 96 96 0 1 1-192 0ZM352-32c-47.568 0-86.752 34.624-94.368 80A92.56 92.56 0 0 1 256 32c0-53.04 42.976-96 96-96s96 42.96 96 96c0 5.472-0.72 10.784-1.632 16-7.616-45.376-46.8-80-94.368-80zM352 32c-37.84 0-71.472 16.72-94.912 42.816-0.4-3.6-1.088-7.136-1.088-10.816 0-53.04 42.976-96 96-96s96 42.96 96 96c0 3.68-0.688 7.216-1.088 10.816C423.472 48.72 389.84 32 352 32z"  horiz-adv-x="1024" />
      
      <glyph glyph-name="house" unicode="&#58972;" d="M496 771.392L96 371.424V-128h832V339.424zM256 224h224v-352H256zM544 256h96v-96h-96zM672 256h96v-96h-96zM672 384h96v-96h-96zM544 384h96v-96h-96zM544 384h96v-32h-96zM672 384h96v-32h-96zM544 256h96v-32h-96zM672 256h96v-32h-96zM496 832L96 416v-96L496 720 928 288v96zM1012.576 390.624L541.248 861.952l-22.624 22.624a31.968 31.968 0 0 1-45.248 0l-22.624-22.624L11.424 422.624a31.968 31.968 0 0 1 0-45.248l22.624-22.624a31.968 31.968 0 0 1 45.248 0L496 771.392l448.672-448.672a31.968 31.968 0 0 1 45.248 0l22.624 22.624a32.032 32.032 0 0 1 0.032 45.28zM238.24-128A126.656 126.656 0 0 1 256-64a128 128 0 0 1-256 0c0-23.424 6.752-45.088 17.76-64h220.48zM896 64a127.744 127.744 0 0 1-116.224-75.04A94.848 94.848 0 0 1 736 0a96 96 0 0 1-96-96c0-11.296 2.304-21.952 5.888-32h360.384A126.944 126.944 0 0 1 1024-64a128 128 0 0 1-128 128zM779.776-11.04A94.848 94.848 0 0 1 736 0a96 96 0 0 1-96-96c0-11.296 2.304-21.952 5.888-32h139.872A126.656 126.656 0 0 0 768-64c0 18.944 4.384 36.768 11.776 52.96z"  horiz-adv-x="1024" />
      
      <glyph glyph-name="nightstand" unicode="&#58973;" d="M64-63.968a32 32 0 0 1 32-32h832a32 32 0 0 1 32 32v896H64v-896zM64 544.032h896v-32H64zM64 224.032h896v-32H64zM416 672.032h192a32 32 0 1 1 0 64h-192a32 32 0 1 1 0-64zM608 96.032h-192a32 32 0 1 1 0-64h192a32 32 0 1 1 0 64zM608 416.032h-192a32 32 0 1 1 0-64h192a32 32 0 1 1 0 64zM416 640.032h192a32 32 0 0 1 32 32 30.88 30.88 0 0 1-4.896 16 31.552 31.552 0 0 0-27.104-16h-192a31.584 31.584 0 0 0-27.104 16 30.88 30.88 0 0 1-4.896-16 32 32 0 0 1 32-32zM608 352.032h-192a31.584 31.584 0 0 0-27.104 16 30.88 30.88 0 0 1-4.896-16 32 32 0 0 1 32-32h192a32 32 0 0 1 32 32 30.88 30.88 0 0 1-4.896 16 31.584 31.584 0 0 0-27.104-16zM608 32.032h-192a31.584 31.584 0 0 0-27.104 16 30.88 30.88 0 0 1-4.896-16 32 32 0 0 1 32-32h192a32 32 0 0 1 32 32 30.88 30.88 0 0 1-4.896 16 31.584 31.584 0 0 0-27.104-16zM64 832.032h896v-32H64zM128-95.968h128v-32H128zM768-95.968h128v-32h-128zM32 896.032h960v-64H32z"  horiz-adv-x="1024" />
      
      <glyph glyph-name="sun" unicode="&#58974;" d="M258.133 386.133c0-141.385 114.615-256 256-256s256 114.615 256 256c0 141.385-114.615 256-256 256-141.385 0-256-114.615-256-256zM514.133 725.333c-19.2 0-32 14.933-32 32v108.8c0 17.067 12.8 29.867 29.867 29.867h2.133c17.067 0 32-14.933 32-32v-108.8c0-14.933-14.933-29.867-32-29.867zM514.133-128c-19.2 0-32 14.933-32 32v108.8c0 17.067 14.933 32 32 32h2.133c17.067 0 32-14.933 32-32v-108.8c-2.133-17.067-17.067-32-34.133-32zM853.333 386.133c0 19.2 14.933 32 32 32h108.8c17.067 0 32-14.933 32-32v-2.133c0-17.067-14.933-32-32-32h-108.8c-17.067 2.133-32 17.067-32 34.133zM0 386.133c0 19.2 14.933 32 32 32h108.8c17.067 0 32-14.933 32-32v-2.133c0-17.067-14.933-32-32-32h-108.8c-17.067 2.133-32 17.067-32 34.133zM742.4 648.533c-12.8 12.8-12.8 32-2.133 44.8l76.8 76.8c12.8 12.8 32 12.8 44.8 0v-2.133c12.8-12.8 12.8-32 0-44.8l-76.8-76.8c-10.667-10.667-32-10.667-42.667 2.133zM138.667 44.8c-12.8 12.8-12.8 34.133-2.133 44.8l76.8 76.8c12.8 12.8 32 12.8 44.8 0l2.133-2.133c12.8-12.8 12.8-32 0-44.8l-76.8-76.8c-12.8-10.667-32-10.667-44.8 2.133zM740.267 168.533c12.8 12.8 34.133 12.8 44.8 2.133l76.8-76.8c12.8-12.8 12.8-32 0-44.8l-2.133-2.133c-12.8-12.8-32-12.8-44.8 0l-76.8 76.8c-10.667 12.8-10.667 32 2.133 44.8zM136.533 772.267c12.8 12.8 34.133 12.8 44.8 2.133l76.8-76.8c12.8-12.8 12.8-32 0-44.8l-2.133-2.133c-12.8-12.8-32-12.8-44.8 0l-74.667 76.8c-10.667 12.8-10.667 32 0 44.8z"  horiz-adv-x="1028" />
      
      <glyph glyph-name="xiangce" unicode="&#58975;" d="M200.465608-77.432099H848.818342c79.463845 0 144.479718 65.015873 144.479718 144.479718V715.400353c0 79.463845-65.015873 144.479718-144.479718 144.479718H200.465608c-79.463845 0-144.479718-65.015873-144.479717-144.479718v-648.352734c0-79.463845 65.015873-144.479718 144.479717-144.479718zM847.012346-86.462081H200.465608c-84.881834 0-153.5097 68.627866-153.5097 153.5097V715.400353c0 84.881834 68.627866 153.5097 153.5097 153.5097H848.818342c84.881834 0 153.5097-68.627866 153.5097-153.5097v-648.352734c-1.805996-84.881834-70.433862-153.5097-155.315696-153.5097zM200.465608 850.850088C126.419753 850.850088 65.015873 789.446208 65.015873 715.400353v-648.352734c0-74.045855 61.40388-135.449735 135.449735-135.449735H848.818342c74.045855 0 135.449735 61.40388 135.449736 135.449735V715.400353c0 74.045855-61.40388 135.449735-135.449736 135.449735H200.465608zM175.181658-48.536155c-1.805996 0-3.611993 0-5.41799 1.805996-3.611993 3.611993-3.611993 9.029982-1.805996 12.641976l242.003527 285.347442 189.62963-153.5097L760.324515 336.141093l231.167548-139.061728c3.611993-1.805996 5.417989-9.029982 3.611993-12.641975-1.805996-3.611993-9.029982-5.417989-12.641975-3.611993l-214.91358 130.031746-160.733686-240.197531L415.379189 225.975309l-232.973545-270.899471c-1.805996-3.611993-3.611993-3.611993-7.223986-3.611993zM307.0194 388.514991m-63.209876 0a63.209877 63.209877 0 1 1 126.419753 0 63.209877 63.209877 0 1 1-126.419753 0ZM307.0194 316.275132c-39.731922 0-72.239859 32.507937-72.239859 72.239859s32.507937 72.239859 72.239859 72.239859 72.239859-32.507937 72.239859-72.239859-32.507937-72.239859-72.239859-72.239859z m0 124.613757c-28.895944 0-54.179894-23.477954-54.179894-54.179894s23.477954-54.179894 54.179894-54.179894 54.179894 23.477954 54.179895 54.179894-25.283951 54.179894-54.179895 54.179894zM539.992945 599.816578m-93.911816 0a93.911817 93.911817 0 1 1 187.823633 0 93.911817 93.911817 0 1 1-187.823633 0ZM539.992945 496.87478c-55.985891 0-102.941799 46.955908-102.941799 102.941798s46.955908 102.941799 102.941799 102.941799 102.941799-46.955908 102.941799-102.941799-46.955908-102.941799-102.941799-102.941798z m0 187.823633c-46.955908 0-84.881834-37.925926-84.881834-84.881835s37.925926-84.881834 84.881834-84.881834 84.881834 37.925926 84.881835 84.881834-37.925926 84.881834-84.881835 84.881835z"  horiz-adv-x="1024" />
      
      <glyph glyph-name="tongxunlu" unicode="&#58976;" d="M919.252205 505.904762h-151.703704c-10.835979 0-18.059965 7.223986-18.059965 18.059965v88.493827c0 10.835979 7.223986 18.059965 18.059965 18.059965h151.703704c10.835979 0 18.059965-7.223986 18.059964-18.059965v-88.493827c0-10.835979-7.223986-18.059965-18.059964-18.059965zM919.252205 496.87478h-151.703704c-14.447972 0-27.089947 12.641975-27.089947 27.089947v88.493827c0 14.447972 12.641975 27.089947 27.089947 27.089947h151.703704c14.447972 0 27.089947-12.641975 27.089947-27.089947v-88.493827c0-14.447972-12.641975-27.089947-27.089947-27.089947z m-149.897708 124.613756c-5.417989 0-9.029982-3.611993-9.029982-9.029982v-88.493827c0-5.417989 3.611993-9.029982 9.029982-9.029983H921.058201c5.417989 0 9.029982 3.611993 9.029982 9.029983v88.493827c0 5.417989-3.611993 9.029982-9.029982 9.029982h-151.703704zM919.252205 287.379189h-151.703704c-10.835979 0-18.059965 7.223986-18.059965 18.059964v88.493828c0 10.835979 7.223986 18.059965 18.059965 18.059964h151.703704c10.835979 0 18.059965-7.223986 18.059964-18.059964v-88.493828c0-10.835979-7.223986-18.059965-18.059964-18.059964zM919.252205 278.349206h-151.703704c-14.447972 0-27.089947 12.641975-27.089947 27.089947v88.493828c0 14.447972 12.641975 27.089947 27.089947 27.089947h151.703704c14.447972 0 27.089947-12.641975 27.089947-27.089947v-88.493828c0-14.447972-12.641975-27.089947-27.089947-27.089947z m-149.897708 124.613757c-5.417989 0-9.029982-3.611993-9.029982-9.029982v-88.493828c0-5.417989 3.611993-9.029982 9.029982-9.029982H921.058201c5.417989 0 9.029982 3.611993 9.029982 9.029982v88.493828c0 5.417989-3.611993 9.029982-9.029982 9.029982h-151.703704zM919.252205 79.689594h-151.703704c-10.835979 0-18.059965 7.223986-18.059965 18.059965v88.493827c0 10.835979 7.223986 18.059965 18.059965 18.059965h151.703704c10.835979 0 18.059965-7.223986 18.059964-18.059965v-88.493827c0-10.835979-7.223986-18.059965-18.059964-18.059965zM919.252205 70.659612h-151.703704c-14.447972 0-27.089947 12.641975-27.089947 27.089947v88.493827c0 14.447972 12.641975 27.089947 27.089947 27.089947h151.703704c14.447972 0 27.089947-12.641975 27.089947-27.089947v-88.493827c0-16.253968-12.641975-27.089947-27.089947-27.089947z m-149.897708 124.613757c-5.417989 0-9.029982-3.611993-9.029982-9.029983v-88.493827c0-5.417989 3.611993-9.029982 9.029982-9.029982H921.058201c5.417989 0 9.029982 3.611993 9.029982 9.029982v88.493827c0 5.417989-3.611993 9.029982-9.029982 9.029983h-151.703704zM718.786596-90.074074H180.599647c-59.597884 0-108.359788 48.761905-108.359788 108.359788V738.878307c0 59.597884 48.761905 108.359788 108.359788 108.359788h539.992946c59.597884 0 108.359788-48.761905 108.359788-108.359788v-720.592593c-1.805996-59.597884-48.761905-108.359788-110.165785-108.359788zM718.786596-99.104056H180.599647c-65.015873 0-117.389771 52.373898-117.38977 117.38977V738.878307c0 65.015873 52.373898 117.389771 117.38977 117.389771h539.992946c65.015873 0 117.389771-52.373898 117.38977-117.389771v-720.592593c-1.805996-65.015873-54.179894-117.389771-119.195767-117.38977zM180.599647 838.208113c-54.179894 0-99.329806-45.149912-99.329806-99.329806v-720.592593c0-54.179894 45.149912-99.329806 99.329806-99.329806h539.992946c54.179894 0 99.329806 45.149912 99.329806 99.329806V738.878307c0 54.179894-45.149912 99.329806-99.329806 99.329806H180.599647zM151.703704 628.712522h561.664903M713.368607 619.68254H151.703704c-5.417989 0-9.029982 3.611993-9.029983 9.029982s3.611993 9.029982 9.029983 9.029982h561.664903c5.417989 0 9.029982-3.611993 9.029982-9.029982s-3.611993-9.029982-9.029982-9.029982zM151.703704 440.888889h561.664903M713.368607 431.858907H151.703704c-5.417989 0-9.029982 3.611993-9.029983 9.029982s3.611993 9.029982 9.029983 9.029982h561.664903c5.417989 0 9.029982-3.611993 9.029982-9.029982s-3.611993-9.029982-9.029982-9.029982zM166.151675 274.737213h312.43739M478.589065 265.707231H166.151675c-5.417989 0-9.029982 3.611993-9.029982 9.029982s3.611993 9.029982 9.029982 9.029983h312.43739c5.417989 0 9.029982-3.611993 9.029983-9.029983s-3.611993-9.029982-9.029983-9.029982z"  horiz-adv-x="1024" />
      
      <glyph glyph-name="ermai" unicode="&#58977;" d="M146.285714 114.003527H95.717813c-28.895944 0-52.373898 37.925926-52.373898 84.881835v57.791887c0 46.955908 23.477954 84.881834 52.373898 84.881834h50.567901M146.285714 104.973545H95.717813c-34.313933 0-61.40388 41.537919-61.40388 93.911817v57.791887c0 52.373898 27.089947 93.911817 61.40388 93.911816h50.567901v-18.059964H95.717813c-23.477954 0-43.343915-34.313933-43.343915-75.851852v-57.791887c0-41.537919 19.865961-75.851852 43.343915-75.851852h50.567901v-18.059965zM875.908289 341.559083h50.567901c28.895944 0 52.373898-37.925926 52.373898-84.881834v-57.791887c0-46.955908-23.477954-84.881834-52.373898-84.881835h-50.567901M928.282187 104.973545h-50.567901v18.059965h50.567901c23.477954 0 43.343915 34.313933 43.343915 75.851852v57.791887c0 41.537919-19.865961 75.851852-43.343915 75.851852h-50.567901v18.059964h50.567901c34.313933 0 61.40388-41.537919 61.40388-93.911816v-57.791887c0-52.373898-27.089947-93.911817-61.40388-93.911817zM884.938272 85.107584H680.86067c-5.417989 0-9.029982 3.611993-9.029982 9.029982s3.611993 9.029982 9.029982 9.029983H866.878307V359.619048c0 193.241623-97.52381 350.363316-214.91358 350.363315H372.035273c-119.195767 0-216.719577-157.121693-216.719576-350.363315v-265.481482c0-5.417989-3.611993-9.029982-9.029983-9.029982s-9.029982 3.611993-9.029982 9.029982V359.619048c0 202.271605 104.747795 368.42328 232.973545 368.42328H650.15873c128.22575 0 232.973545-164.345679 232.973545-368.42328v-274.511464zM624.87478 94.137566m-63.209877 0a63.209877 63.209877 0 1 1 126.419753 0 63.209877 63.209877 0 1 1-126.419753 0ZM624.87478 23.703704c-39.731922 0-72.239859 32.507937-72.239859 72.239859s32.507937 72.239859 72.239859 72.239859 72.239859-32.507937 72.239858-72.239859-34.313933-72.239859-72.239858-72.239859z m0 124.613756c-28.895944 0-54.179894-23.477954-54.179895-54.179894s23.477954-54.179894 54.179895-54.179894 54.179894 23.477954 54.179894 54.179894-25.283951 54.179894-54.179894 54.179894z"  horiz-adv-x="1024" />
      
      <glyph glyph-name="huishouzhan" unicode="&#58978;" d="M899.386243 657.608466v-469.559083c0-148.091711-111.971781-269.093474-249.227513-269.093475H400.931217c-137.255732 0-249.227513 121.001764-249.227513 269.093475v469.559083h747.682539zM650.15873-90.074074H400.931217c-142.673721 0-258.257496 124.613757-258.257496 278.123457V666.638448h767.548501v-478.589065c-1.805996-153.5097-117.389771-278.123457-260.063492-278.123457zM160.733686 648.578483v-460.5291c0-142.673721 108.359788-260.063492 240.197531-260.063492H650.15873c131.837743 0 240.197531 115.583774 240.197531 260.063492V648.578483H160.733686zM680.86067 738.878307V818.342152c0 25.283951-46.955908 45.149912-104.747795 45.149911h-104.747796c-57.791887 0-104.747795-19.865961-104.747795-45.149911v-79.463845h314.243386zM689.890653 729.848325H361.199295V818.342152c0 30.70194 48.761905 54.179894 113.777777 54.179894H577.918871c65.015873 0 113.777778-23.477954 113.777778-54.179894v-88.493827zM379.259259 747.908289h294.377425V818.342152c0 18.059965-39.731922 36.119929-95.717813 36.119929h-104.747795c-54.179894 0-95.717813-19.865961-95.717813-36.119929v-70.433863zM525.544974 509.516755v-437.051147M525.544974 63.435626c-5.417989 0-9.029982 3.611993-9.029983 9.029982V509.516755c0 5.417989 3.611993 9.029982 9.029983 9.029982s9.029982-3.611993 9.029982-9.029982v-437.051147c0-5.417989-3.611993-9.029982-9.029982-9.029982zM713.368607 392.126984v-312.43739M713.368607 70.659612c-5.417989 0-9.029982 3.611993-9.029983 9.029982V392.126984c0 5.417989 3.611993 9.029982 9.029983 9.029982s9.029982-3.611993 9.029982-9.029982v-312.43739c0-5.417989-3.611993-9.029982-9.029982-9.029982zM339.527337 392.126984v-312.43739M339.527337 70.659612c-5.417989 0-9.029982 3.611993-9.029983 9.029982V392.126984c0 5.417989 3.611993 9.029982 9.029983 9.029982s9.029982-3.611993 9.029982-9.029982v-312.43739c0-5.417989-3.611993-9.029982-9.029982-9.029982zM88.493827 738.878307h874.102293M962.59612 729.848325H88.493827c-5.417989 0-9.029982 3.611993-9.029982 9.029982s3.611993 9.029982 9.029982 9.029982h874.102293c5.417989 0 9.029982-3.611993 9.029982-9.029982s-3.611993-9.029982-9.029982-9.029982z"  horiz-adv-x="1024" />
      
      <glyph glyph-name="cha" unicode="&#58979;" d="M854.236332 323.499118h-119.195768V543.830688h119.195768c45.149912 0 83.075838-37.925926 83.075837-83.075838v-55.985891c-1.805996-45.149912-37.925926-81.269841-83.075837-81.269841z m-106.553792 14.447972h104.747795c37.925926 0 66.821869 30.70194 66.82187 66.821869v55.985891c0 37.925926-30.70194 66.821869-66.82187 66.82187h-104.747795v-189.62963zM783.802469 560.084656v-341.333333C783.802469 94.137566 691.696649-6.998236 577.918871-6.998236h-155.315696C308.825397-6.998236 216.719577 94.137566 216.719577 220.557319V560.084656h567.082892zM577.918871-14.222222h-155.315696c-117.389771 0-214.91358 104.747795-214.913581 234.779541V567.308642h583.336861v-348.557319c0-128.22575-95.717813-232.973545-213.107584-232.973545zM223.943563 552.86067v-334.109347c0-121.001764 88.493827-220.33157 198.659612-220.33157H577.918871c110.165785 0 198.659612 99.329806 198.659612 220.33157V552.86067H223.943563zM348.557319 587.174603c-3.611993 0-7.223986 3.611993-7.223986 7.223986 0 19.865961 9.029982 30.70194 16.253969 39.731922 7.223986 9.029982 12.641975 16.253968 12.641975 30.70194 0 14.447972-5.417989 21.671958-12.641975 30.701941-7.223986 9.029982-16.253968 19.865961-16.253969 39.731922s9.029982 30.70194 16.253969 39.731922c7.223986 9.029982 12.641975 16.253968 12.641975 30.70194 0 3.611993 3.611993 7.223986 7.223986 7.223986s7.223986-3.611993 7.223986-7.223986c0-19.865961-9.029982-30.70194-16.253969-39.731922-7.223986-9.029982-12.641975-16.253968-12.641975-30.70194 0-14.447972 5.417989-21.671958 12.641975-30.70194 7.223986-9.029982 16.253968-19.865961 16.253969-39.731923s-9.029982-30.70194-16.253969-39.731922c-7.223986-9.029982-12.641975-16.253968-12.641975-30.70194 0-3.611993-3.611993-7.223986-7.223986-7.223986zM485.813051 587.174603c-3.611993 0-7.223986 3.611993-7.223986 7.223986 0 19.865961 9.029982 30.70194 16.253969 39.731922 7.223986 9.029982 12.641975 16.253968 12.641975 30.70194 0 14.447972-5.417989 21.671958-12.641975 30.701941-7.223986 9.029982-16.253968 19.865961-16.253969 39.731922s9.029982 30.70194 16.253969 39.731922c7.223986 9.029982 12.641975 16.253968 12.641975 30.70194 0 3.611993 3.611993 7.223986 7.223986 7.223986s9.029982-3.611993 9.029982-7.223986c0-19.865961-9.029982-30.70194-16.253968-39.731922-7.223986-9.029982-12.641975-16.253968-12.641975-30.70194 0-14.447972 5.417989-21.671958 12.641975-30.70194 7.223986-9.029982 16.253968-19.865961 16.253968-39.731923s-9.029982-30.70194-16.253968-39.731922c-7.223986-9.029982-12.641975-16.253968-12.641975-30.70194-1.805996-3.611993-5.417989-7.223986-9.029983-7.223986zM624.87478 587.174603c-3.611993 0-7.223986 3.611993-7.223986 7.223986 0 19.865961 9.029982 30.70194 16.253968 39.731922 7.223986 9.029982 12.641975 16.253968 12.641975 30.70194 0 14.447972-5.417989 21.671958-12.641975 30.701941-7.223986 9.029982-16.253968 19.865961-16.253968 39.731922s9.029982 30.70194 16.253968 39.731922c7.223986 9.029982 12.641975 16.253968 12.641975 30.70194 0 3.611993 3.611993 7.223986 7.223986 7.223986s7.223986-3.611993 7.223986-7.223986c0-19.865961-9.029982-30.70194-16.253968-39.731922-7.223986-9.029982-12.641975-16.253968-12.641976-30.70194 0-14.447972 5.417989-21.671958 12.641976-30.70194 7.223986-9.029982 16.253968-19.865961 16.253968-39.731923s-9.029982-30.70194-16.253968-39.731922c-7.223986-9.029982-12.641975-16.253968-12.641976-30.70194 0-3.611993-3.611993-7.223986-7.223985-7.223986zM783.802469-68.402116H216.719577c-3.611993 0-7.223986 3.611993-7.223986 7.223985s3.611993 7.223986 7.223986 7.223986h568.888889c3.611993 0 7.223986-3.611993 7.223985-7.223986-1.805996-3.611993-3.611993-7.223986-9.029982-7.223985zM429.82716 290.991182h-119.195767c-9.029982 0-18.059965 7.223986-18.059964 18.059964v119.195768c0 10.835979 9.029982 18.059965 18.059964 18.059964h119.195767c10.835979 0 18.059965-7.223986 18.059965-18.059964v-119.195768c0-9.029982-7.223986-18.059965-18.059965-18.059964zM433.439153 283.767196h-124.613756c-12.641975 0-21.671958 10.835979-21.671958 21.671957v124.613757c0 12.641975 10.835979 21.671958 21.671958 21.671958H433.439153c12.641975 0 21.671958-10.835979 21.671958-21.671958v-124.613757c0-10.835979-9.029982-21.671958-21.671958-21.671957z m-124.613756 155.315696c-3.611993 0-7.223986-3.611993-7.223986-7.223985v-124.613757c0-3.611993 3.611993-7.223986 7.223986-7.223986H433.439153c3.611993 0 7.223986 3.611993 7.223986 7.223986v124.613757c0 3.611993-3.611993 7.223986-7.223986 7.223985h-124.613756zM370.229277 446.306878v113.777778M363.005291 560.084656h14.447972v-113.777778h-14.447972z"  horiz-adv-x="1024" />
      
      <glyph glyph-name="kafei" unicode="&#58980;" d="M874.102293 328.917108h-124.613757V560.084656h124.613757c46.955908 0 86.687831-37.925926 86.68783-86.687831v-59.597883c0-45.149912-39.731922-84.881834-86.68783-84.881834z m-110.165785 16.253968h110.165785c39.731922 0 70.433862 32.507937 70.433862 70.433862v59.597884c0 39.731922-32.507937 70.433862-70.433862 70.433862h-110.165785v-200.465608zM801.862434 578.144621v-355.781305c0-130.031746-95.717813-236.585538-214.91358-236.585538h-160.733686c-119.195767 0-214.91358 106.553792-214.913581 236.585538V578.144621h590.560847zM586.948854-23.252205h-160.733686c-122.80776 0-223.943563 110.165785-223.943563 245.615521V585.368607h608.620811v-363.005291c-1.805996-135.449735-101.135802-245.61552-223.943562-245.615521zM216.719577 569.114638v-348.557319c0-126.419753 93.911817-229.361552 207.689594-229.361552h160.733686C700.726631-6.998236 794.638448 95.943563 794.638448 222.363316V569.114638H216.719577zM346.751323 605.234568c-3.611993 0-7.223986 3.611993-7.223986 7.223986 0 21.671958 9.029982 32.507937 18.059965 41.537919 7.223986 9.029982 14.447972 16.253968 14.447971 30.70194 0 16.253968-7.223986 23.477954-14.447971 32.507936-9.029982 9.029982-18.059965 19.865961-18.059965 41.537919s9.029982 32.507937 18.059965 41.537919c7.223986 9.029982 14.447972 16.253968 14.447971 32.507936 0 3.611993 3.611993 7.223986 7.223986 7.223986s7.223986-3.611993 7.223986-7.223986c0-21.671958-9.029982-32.507937-18.059965-41.537918-7.223986-9.029982-14.447972-16.253968-14.447971-32.507937s7.223986-23.477954 14.447971-32.507936c9.029982-9.029982 18.059965-19.865961 18.059965-41.537919 0-21.671958-9.029982-32.507937-18.059965-41.537919-7.223986-9.029982-14.447972-16.253968-14.447971-30.70194 0-3.611993-3.611993-7.223986-7.223986-7.223986zM491.231041 605.234568c-3.611993 0-7.223986 3.611993-7.223986 7.223986 0 21.671958 9.029982 32.507937 18.059964 41.537919 7.223986 9.029982 14.447972 16.253968 14.447972 30.70194 0 16.253968-7.223986 23.477954-14.447972 32.507936-9.029982 9.029982-18.059965 19.865961-18.059964 41.537919s9.029982 32.507937 18.059964 41.537919c7.223986 9.029982 14.447972 16.253968 14.447972 32.507936 0 3.611993 3.611993 7.223986 7.223986 7.223986s7.223986-3.611993 7.223986-7.223986c0-21.671958-9.029982-32.507937-18.059965-41.537918-7.223986-9.029982-14.447972-16.253968-14.447972-32.507937s7.223986-23.477954 14.447972-32.507936c9.029982-9.029982 18.059965-19.865961 18.059965-41.537919 0-21.671958-9.029982-32.507937-18.059965-41.537919-7.223986-9.029982-14.447972-16.253968-14.447972-30.70194 0-3.611993-3.611993-7.223986-7.223985-7.223986zM635.710758 605.234568c-3.611993 0-7.223986 3.611993-7.223986 7.223986 0 21.671958 9.029982 32.507937 18.059965 41.537919 7.223986 9.029982 14.447972 16.253968 14.447972 30.70194 0 16.253968-7.223986 23.477954-14.447972 32.507936-9.029982 9.029982-18.059965 19.865961-18.059965 41.537919s9.029982 32.507937 18.059965 41.537919c7.223986 9.029982 14.447972 16.253968 14.447972 32.507936 0 3.611993 3.611993 7.223986 7.223986 7.223986s7.223986-3.611993 7.223986-7.223986c0-21.671958-9.029982-32.507937-18.059965-41.537918-7.223986-9.029982-14.447972-16.253968-14.447972-32.507937s7.223986-23.477954 14.447972-32.507936c9.029982-9.029982 18.059965-19.865961 18.059965-41.537919 0-21.671958-9.029982-32.507937-18.059965-41.537919-7.223986-9.029982-14.447972-16.253968-14.447972-30.70194 0-3.611993-3.611993-7.223986-7.223986-7.223986zM801.862434-79.238095H209.495591c-3.611993 0-7.223986 3.611993-7.223986 7.223986s3.611993 7.223986 7.223986 7.223986h592.366843c3.611993 0 7.223986-3.611993 7.223986-7.223986s-3.611993-7.223986-7.223986-7.223986zM209.495591 451.724868h592.366843v-16.253969H209.495591z"  horiz-adv-x="1024" />
      
      <glyph glyph-name="shuaxin2" unicode="&#58981;" d="M847.012346-86.462081H198.659612c-79.463845 0-144.479718 65.015873-144.479718 144.479718V704.564374c0 79.463845 65.015873 144.479718 144.479718 144.479718h648.352734c79.463845 0 144.479718-65.015873 144.479717-144.479718v-648.352734c0-79.463845-65.015873-142.673721-144.479717-142.673721zM847.012346-95.492063H198.659612c-84.881834 0-153.5097 68.627866-153.5097 153.5097V704.564374c0 84.881834 68.627866 153.5097 153.5097 153.5097h648.352734c84.881834 0 153.5097-68.627866 153.5097-153.5097v-648.352734c0-83.075838-68.627866-151.703704-153.5097-151.703703zM198.659612 840.014109c-74.045855 0-135.449735-61.40388-135.449735-135.449735v-648.352734c0-74.045855 61.40388-135.449735 135.449735-135.449735h648.352734c74.045855 0 135.449735 61.40388 135.449735 135.449735V704.564374c0 74.045855-61.40388 135.449735-135.449735 135.449735H198.659612zM500.261023 482.426808h-3.611993l-128.22575 50.567901 48.761905 122.80776c1.805996 5.417989 7.223986 7.223986 10.835979 5.41799 5.417989-1.805996 7.223986-7.223986 5.417989-12.641976l-43.343915-106.553792 110.165785-45.149911c5.417989-1.805996 7.223986-7.223986 5.417989-12.641976 1.805996 0-1.805996-1.805996-5.417989-1.805996zM523.738977 99.555556c-135.449735 0-247.421517 110.165785-247.421517 247.421516 0 5.417989 3.611993 9.029982 9.029983 9.029983s9.029982-3.611993 9.029982-9.029983c0-126.419753 102.941799-229.361552 229.361552-229.361552s229.361552 102.941799 229.361552 229.361552S650.15873 576.338624 523.738977 576.338624c-46.955908 0-92.10582-14.447972-130.031746-41.537919-3.611993-3.611993-9.029982-1.805996-12.641975 1.805997-3.611993 3.611993-1.805996 9.029982 1.805996 12.641975 41.537919 28.895944 90.299824 43.343915 140.867725 43.343916 135.449735 0 247.421517-110.165785 247.421517-247.421517S659.188713 99.555556 523.738977 99.555556z"  horiz-adv-x="1024" />
      
      <glyph glyph-name="tianqi1" unicode="&#58982;" d="M303.407407 536.606702m-242.003527 0a242.003527 242.003527 0 1 1 484.007055 0 242.003527 242.003527 0 1 1-484.007055 0ZM303.407407 285.573192c-139.061728 0-251.03351 111.971781-251.033509 251.03351C52.373898 673.862434 164.345679 787.640212 303.407407 787.640212s251.03351-111.971781 251.03351-251.03351-111.971781-251.03351-251.03351-251.03351z m0 484.007055C175.181658 769.580247 70.433862 664.832451 70.433862 536.606702c0-128.22575 104.747795-232.973545 232.973545-232.973545 128.22575 0 232.973545 104.747795 232.973545 232.973545C536.380952 664.832451 431.633157 769.580247 303.407407 769.580247zM772.96649 439.082892c3.611993 16.253968 5.417989 32.507937 5.41799 48.761905 0 128.22575-106.553792 232.973545-238.391535 232.973545s-238.391534-104.747795-238.391534-232.973545c0-16.253968 1.805996-32.507937 5.417989-48.761905-7.223986 0-14.447972 1.805996-23.477954 1.805997-131.837743 0-240.197531-104.747795-240.197531-232.973545S149.897707-25.058201 281.73545-25.058201H740.458554c131.837743 0 238.391534 104.747795 238.391534 232.973545 1.805996 117.389771-88.493827 214.91358-205.883598 231.167548zM554.440917-35.89418h-270.899471C146.285714-35.89418 36.119929 72.465608 36.119929 206.109347s111.971781 242.003527 247.421517 242.003528h10.835979c-1.805996 12.641975-3.611993 25.283951-3.611993 37.925926 0 133.643739 111.971781 242.003527 247.421517 242.003527 137.255732 0 247.421517-108.359788 247.421517-242.003527 0-14.447972-1.805996-28.895944-3.611993-41.537919 117.389771-19.865961 205.883598-121.001764 205.883598-238.391535 0-133.643739-111.971781-242.003527-247.421517-242.003527H554.440917z m-270.899471 467.753087C157.121693 431.858907 54.179894 330.723104 54.179894 207.915344 54.179894 83.301587 157.121693-16.028219 283.541446-16.028219H742.26455c126.419753 0 229.361552 101.135802 229.361552 223.943563 0 111.971781-86.687831 207.689594-200.465608 222.137566l-9.029983 1.805997 1.805997 9.029982c3.611993 16.253968 5.417989 32.507937 5.417989 46.955908 0 124.613757-102.941799 223.943563-229.361552 223.943563-126.419753 0-229.361552-101.135802-229.361552-223.943563 0-16.253968 1.805996-30.70194 5.41799-46.955908l1.805996-12.641975-12.641975 1.805996c-7.223986 1.805996-14.447972 1.805996-21.671958 1.805997z"  horiz-adv-x="1024" />
      
      <glyph glyph-name="yinle2" unicode="&#58983;" d="M191.435626 188.049383m-124.613757 0a124.613757 124.613757 0 1 1 249.227514 0 124.613757 124.613757 0 1 1-249.227514 0ZM191.435626 54.405644c-74.045855 0-133.643739 59.597884-133.643739 133.643739s59.597884 133.643739 133.643739 133.643739 133.643739-59.597884 133.643739-133.643739-59.597884-133.643739-133.643739-133.643739z m0 249.227513c-63.209877 0-115.583774-52.373898-115.583774-115.583774 0-63.209877 52.373898-115.583774 115.583774-115.583775s115.583774 52.373898 115.583774 115.583775c0 63.209877-52.373898 115.583774-115.583774 115.583774zM866.878307 54.405644h-18.059965V688.310406L325.079365 818.342152v-630.292769h-18.059965V840.014109l559.858907-137.255732zM733.234568 54.405644m-124.613757 0a124.613757 124.613757 0 1 1 249.227514 0 124.613757 124.613757 0 1 1-249.227514 0ZM733.234568-79.238095c-74.045855 0-133.643739 59.597884-133.643739 133.643739s59.597884 133.643739 133.643739 133.643739 133.643739-59.597884 133.643739-133.643739-59.597884-133.643739-133.643739-133.643739z m0 249.227513c-63.209877 0-115.583774-52.373898-115.583774-115.583774s52.373898-115.583774 115.583774-115.583775 115.583774 52.373898 115.583774 115.583775-52.373898 115.583774-115.583774 115.583774z"  horiz-adv-x="1024" />
      
      <glyph glyph-name="youjian1" unicode="&#58984;" d="M151.703704 61.62963h720.592592c59.597884 0 108.359788 48.761905 108.359789 108.359788V605.234568c0 59.597884-48.761905 108.359788-108.359789 108.359788H151.703704c-59.597884 0-108.359788-48.761905-108.359789-108.359788v-435.24515c0-61.40388 48.761905-108.359788 108.359789-108.359788zM872.296296 52.599647H151.703704c-65.015873 0-117.389771 52.373898-117.389771 117.389771V605.234568c0 65.015873 52.373898 117.389771 117.389771 117.389771h720.592592c65.015873 0 117.389771-52.373898 117.389771-117.389771v-435.24515c0-65.015873-52.373898-117.389771-117.389771-117.389771zM151.703704 704.564374c-54.179894 0-99.329806-45.149912-99.329806-99.329806v-435.24515c0-54.179894 45.149912-99.329806 99.329806-99.329806h720.592592c54.179894 0 99.329806 45.149912 99.329806 99.329806V605.234568c0 54.179894-45.149912 99.329806-99.329806 99.329806H151.703704zM511.097002 290.991182L39.731922 509.516755l7.223986 16.253968 464.141094-214.91358 465.94709 214.91358 7.223986-16.253968zM308.825397 395.738977L43.343915 225.975309M43.343915 216.945326c-3.611993 0-5.417989 1.805996-7.223986 3.611993-1.805996 3.611993-1.805996 9.029982 3.611993 12.641976l265.481482 167.957671c3.611993 1.805996 9.029982 1.805996 12.641975-3.611992 1.805996-3.611993 1.805996-9.029982-3.611993-12.641976L48.761905 218.751323c-1.805996 0-3.611993-1.805996-5.41799-1.805997zM973.432099 256.677249l-218.525573 155.315696M973.432099 247.647266c-1.805996 0-3.611993 0-5.41799 1.805997l-218.525573 155.315696c-3.611993 3.611993-5.417989 9.029982-1.805996 12.641976 3.611993 3.611993 9.029982 5.417989 12.641975 1.805996L978.850088 263.901235c3.611993-3.611993 5.417989-9.029982 1.805997-12.641976-1.805996-1.805996-3.611993-3.611993-7.223986-3.611993z"  horiz-adv-x="1024" />
      
      <glyph glyph-name="liulanqi" unicode="&#58985;" d="M848.818342 529.382716c12.641975-36.119929 19.865961-75.851852 19.865961-117.389771 0-198.659612-162.539683-361.199295-361.199294-361.199294s-361.199295 162.539683-361.199295 361.199294 162.539683 361.199295 361.199295 361.199295c117.389771 0 222.137566-55.985891 287.153439-142.673721M507.485009 38.151675c-205.883598 0-373.84127 167.957672-373.84127 373.84127 0 205.883598 167.957672 373.84127 373.84127 373.84127 117.389771 0 225.749559-54.179894 296.183421-146.285714 3.611993-5.417989 3.611993-12.641975-1.805996-16.253968-5.417989-3.611993-12.641975-3.611993-16.253968 1.805996-66.821869 86.687831-167.957672 137.255732-278.123457 137.255732-193.241623 0-348.557319-157.121693-348.557319-348.557319S316.049383 65.241623 507.485009 65.241623s348.557319 157.121693 348.557319 348.557319c0 39.731922-7.223986 77.657848-18.059965 113.777778-1.805996 5.417989 1.805996 12.641975 7.223986 14.447971 5.417989 1.805996 12.641975-1.805996 14.447972-7.223986 12.641975-39.731922 19.865961-79.463845 19.865961-121.001763 0-207.689594-167.957672-375.647266-372.035273-375.647267zM251.03351 191.661376c-101.135802 0-173.375661 25.283951-189.62963 74.045855-9.029982 34.313933 5.417989 74.045855 46.955908 117.389771 5.417989 5.417989 12.641975 5.417989 16.253969 0 5.417989-5.417989 5.417989-12.641975 0-16.253968-23.477954-25.283951-50.567901-61.40388-39.731923-92.105821 21.671958-68.627866 218.525573-84.881834 476.783069-1.805996C819.922399 356.007055 969.820106 484.232804 948.148148 552.86067c-7.223986 25.283951-37.925926 37.925926-59.597883 45.149912-7.223986 1.805996-10.835979 9.029982-7.223986 14.447972 1.805996 7.223986 9.029982 10.835979 14.447971 7.223986 41.537919-12.641975 66.821869-32.507937 75.851852-61.40388 28.895944-92.10582-146.285714-227.555556-400.931217-308.825397C451.499118 211.527337 339.527337 191.661376 251.03351 191.661376zM612.232804 276.54321m-48.761905 0a48.761905 48.761905 0 1 1 97.52381 0 48.761905 48.761905 0 1 1-97.52381 0ZM612.232804 220.557319c-30.70194 0-55.985891 25.283951-55.98589 55.985891 0 30.70194 25.283951 55.985891 55.98589 55.985891s55.985891-25.283951 55.985891-55.985891c0-30.70194-25.283951-55.985891-55.985891-55.985891z m0 97.52381c-23.477954 0-41.537919-18.059965-41.537919-41.537919 0-23.477954 18.059965-41.537919 41.537919-41.537919s41.537919 18.059965 41.537919 41.537919c0 23.477954-18.059965 41.537919-41.537919 41.537919zM845.206349 532.994709c-3.611993 0-5.417989 1.805996-7.223986 5.417989-7.223986 21.671958-5.417989 41.537919 3.611993 55.985891 12.641975 19.865961 34.313933 23.477954 36.11993 23.477954 3.611993 0 7.223986-1.805996 7.223986-5.417989 0-3.611993-1.805996-7.223986-5.41799-7.223986 0 0-18.059965-3.611993-27.089947-18.059965-7.223986-10.835979-7.223986-25.283951-1.805996-45.149912 1.805996-3.611993-1.805996-7.223986-5.41799-9.029982z"  horiz-adv-x="1024" />
      
      <glyph glyph-name="shezhi2" unicode="&#58986;" d="M883.132275 491.45679h-128.225749l90.299823 90.299824c12.641975 12.641975 19.865961 30.70194 19.865961 50.567901s-7.223986 36.119929-19.865961 50.567901l-39.731922 39.731923c-27.089947 27.089947-72.239859 27.089947-99.329806 0l-90.299824-90.299824v126.419753c0 39.731922-32.507937 70.433862-70.433862 70.433863h-55.985891c-39.731922 0-70.433862-32.507937-70.433862-70.433863v-128.225749l-90.299824 90.299823c-27.089947 27.089947-72.239859 27.089947-99.329806 0l-39.731922-39.731922c-12.641975-12.641975-19.865961-30.70194-19.865962-50.567901s7.223986-36.119929 19.865962-50.567902l90.299823-90.299823H149.897707c-39.731922 0-70.433862-32.507937-70.433862-70.433863v-55.98589c0-39.731922 32.507937-70.433862 70.433862-70.433863h128.22575l-90.299824-90.299824c-12.641975-12.641975-19.865961-30.70194-19.865961-50.567901s7.223986-36.119929 19.865961-50.567901l39.731923-39.731922c12.641975-12.641975 30.70194-19.865961 50.567901-19.865962s36.119929 7.223986 50.567901 19.865962l90.299824 90.299823v-128.225749c0-39.731922 32.507937-70.433862 70.433862-70.433863h55.985891c39.731922 0 70.433862 32.507937 70.433862 70.433863v128.225749l90.299824-90.299823c12.641975-12.641975 30.70194-19.865961 50.567901-19.865962s36.119929 7.223986 50.567901 19.865962l39.731923 39.731922c12.641975 12.641975 19.865961 30.70194 19.865961 50.567901s-7.223986 36.119929-19.865961 50.567901l-90.299824 90.299824H884.938272c39.731922 0 70.433862 32.507937 70.433862 70.433863v55.98589c-1.805996 39.731922-32.507937 72.239859-72.239859 72.239859zM545.410935-53.954145h-55.985891c-43.343915 0-79.463845 36.119929-79.463845 79.463845v106.553792l-75.851852-75.851852c-14.447972-14.447972-34.313933-23.477954-55.98589-23.477954-21.671958 0-41.537919 9.029982-55.985891 23.477954l-39.731922 39.731923c-14.447972 14.447972-23.477954 34.313933-23.477954 55.98589s9.029982 41.537919 23.477954 55.985891l75.851852 75.851852h-108.359789c-43.343915 0-79.463845 36.119929-79.463845 79.463845v55.98589c0 43.343915 36.119929 79.463845 79.463845 79.463845h106.553792L180.599647 574.532628c-14.447972 14.447972-23.477954 34.313933-23.477954 55.985891s9.029982 41.537919 23.477954 55.98589l39.731923 39.731923c14.447972 14.447972 34.313933 23.477954 55.98589 23.477954 21.671958 0 41.537919-9.029982 55.985891-23.477954l75.851852-75.851852v108.359788c0 43.343915 36.119929 79.463845 79.463845 79.463845h55.98589c43.343915 0 79.463845-36.119929 79.463845-79.463845v-106.553792l75.851852 75.851852c14.447972 14.447972 34.313933 23.477954 55.985891 23.477954 21.671958 0 41.537919-9.029982 55.98589-23.477954l39.731923-39.731922c14.447972-14.447972 23.477954-34.313933 23.477954-55.985891s-9.029982-41.537919-23.477954-55.985891L776.578483 500.486772h106.553792c43.343915 0 79.463845-36.119929 79.463845-79.463844v-55.985891c0-43.343915-36.119929-79.463845-79.463845-79.463845H776.578483l75.851852-75.851852c14.447972-14.447972 23.477954-34.313933 23.477954-55.98589 0-21.671958-9.029982-41.537919-23.477954-55.985891L812.698413 56.21164c-14.447972-14.447972-34.313933-23.477954-55.985891-23.477954s-41.537919 9.029982-55.985891 23.477954l-75.851851 75.851852v-106.553792c0-43.343915-36.119929-79.463845-79.463845-79.463845z m-117.389771 229.361552v-149.897707c0-34.313933 27.089947-61.40388 61.40388-61.40388h55.985891c34.313933 0 61.40388 27.089947 61.40388 61.40388v149.897707l106.553792-106.553791c23.477954-23.477954 63.209877-23.477954 86.68783 0l39.731923 39.731922c10.835979 10.835979 18.059965 27.089947 18.059965 43.343915s-7.223986 32.507937-18.059965 43.343916l-106.553792 106.553791h149.897707c34.313933 0 61.40388 27.089947 61.40388 61.403881v55.98589c0 34.313933-27.089947 61.40388-61.40388 61.40388h-149.897707l106.553792 106.553792c10.835979 10.835979 18.059965 27.089947 18.059965 43.343916s-7.223986 32.507937-18.059965 43.343915L800.056437 715.400353c-21.671958 21.671958-65.015873 21.671958-86.68783 0l-106.553792-106.553792V758.744268c0 34.313933-27.089947 61.40388-61.40388 61.40388h-55.985891c-34.313933 0-61.40388-27.089947-61.40388-61.40388v-149.897707L321.467372 715.400353c-21.671958 21.671958-65.015873 21.671958-86.687831 0l-39.731922-39.731923c-10.835979-10.835979-18.059965-27.089947-18.059965-43.343915s7.223986-32.507937 18.059965-43.343915l106.553792-106.553792H149.897707c-34.313933 0-61.40388-27.089947-61.40388-61.40388v-55.985891c0-34.313933 27.089947-61.40388 61.40388-61.40388h149.897707l-106.553791-106.553792c-10.835979-10.835979-18.059965-27.089947-18.059965-43.343915 0-16.253968 7.223986-32.507937 18.059965-43.343916l39.731922-39.731922c23.477954-23.477954 63.209877-23.477954 86.687831 0l108.359788 104.747795zM516.514991 392.126984m-119.195767 0a119.195767 119.195767 0 1 1 238.391534 0 119.195767 119.195767 0 1 1-238.391534 0ZM516.514991 263.901235c-70.433862 0-128.22575 57.791887-128.225749 128.225749s57.791887 128.22575 128.225749 128.22575 128.22575-57.791887 128.22575-128.22575-55.985891-128.22575-128.22575-128.225749z m0 238.391534c-61.40388 0-110.165785-48.761905-110.165785-110.165785s48.761905-110.165785 110.165785-110.165785 110.165785 48.761905 110.165785 110.165785-48.761905 110.165785-110.165785 110.165785z"  horiz-adv-x="1024" />
      
      <glyph glyph-name="xiaoxi1" unicode="&#58987;" d="M706.144621 38.151675H265.481481c-122.80776 0-220.33157 68.627866-220.331569 193.241623V567.308642C45.149912 691.922399 144.479718 793.058201 265.481481 793.058201h442.469136c122.80776 0 220.33157-101.135802 220.33157-225.749559v-337.72134l52.373898-249.227514-274.511464 57.791887zM980.656085-28.670194h-1.805997L706.144621 29.121693H265.481481C126.419753 29.121693 34.313933 110.391534 34.313933 229.587302V567.308642c0 128.22575 102.941799 234.779541 229.361552 234.779541h442.469136c126.419753 0 229.361552-104.747795 229.361552-234.779541v-335.915344l52.373898-247.421517c0-3.611993 0-5.417989-1.805997-9.029982-1.805996-1.805996-3.611993-3.611993-5.417989-3.611993z m-715.174604 812.698413C148.091711 784.028219 54.179894 686.504409 54.179894 567.308642v-337.72134c0-126.419753 106.553792-184.21164 211.301587-184.211641h444.275133l260.063492-54.179894-48.761905 234.779542V567.308642c0 119.195767-95.717813 216.719577-211.301587 216.719577H265.481481zM189.62963 619.68254h581.530864M771.160494 610.652557H189.62963c-5.417989 0-9.029982 3.611993-9.029983 9.029983s3.611993 9.029982 9.029983 9.029982h581.530864c5.417989 0 9.029982-3.611993 9.029982-9.029982s-3.611993-9.029982-9.029982-9.029983zM189.62963 424.634921h581.530864M771.160494 415.604938H189.62963c-5.417989 0-9.029982 3.611993-9.029983 9.029983s3.611993 9.029982 9.029983 9.029982h581.530864c5.417989 0 9.029982-3.611993 9.029982-9.029982s-3.611993-9.029982-9.029982-9.029983zM204.077601 251.259259h323.273369M527.35097 242.229277H204.077601c-5.417989 0-9.029982 3.611993-9.029982 9.029982s3.611993 9.029982 9.029982 9.029983h323.273369c5.417989 0 9.029982-3.611993 9.029982-9.029983s-3.611993-9.029982-9.029982-9.029982z"  horiz-adv-x="1024" />
      
      <glyph glyph-name="earth" unicode="&#59065;" d="M127.3 384.1c-0-212.077 171.923-384 384-384s384 171.923 384 384c0 212.077-171.923 384-384 384-212.077 0-384-171.923-384-384zM511.3-12.9c-53.6 0-105.6 10.5-154.5 31.2-47.3 20-89.7 48.6-126.2 85.1s-65.1 78.9-85.1 126.2c-20.7 48.9-31.2 100.9-31.2 154.5 0 53.6 10.5 105.6 31.2 154.5 20 47.3 48.6 89.7 85.1 126.2s78.9 65.1 126.2 85.1c48.9 20.7 100.9 31.2 154.5 31.2 53.6 0 105.6-10.5 154.5-31.2 47.3-20 89.7-48.6 126.2-85.1s65.1-78.9 85.1-126.2c20.7-48.9 31.2-100.9 31.2-154.5 0-53.6-10.5-105.6-31.2-154.5-20-47.3-48.6-89.7-85.1-126.2s-78.9-65.1-126.2-85.1c-48.9-20.7-100.9-31.2-154.5-31.2zM511.3 755c-50.1 0-98.7-9.8-144.4-29.1-44.2-18.7-83.8-45.4-117.9-79.5s-60.8-73.7-79.5-117.9c-19.3-45.7-29.1-94.3-29.1-144.4s9.8-98.7 29.1-144.4c18.7-44.2 45.4-83.8 79.5-117.9 34.1-34.1 73.7-60.8 117.9-79.5 45.7-19.3 94.3-29.1 144.4-29.1s98.7 9.8 144.4 29.1c44.2 18.7 83.8 45.4 117.9 79.5 34.1 34.1 60.8 73.7 79.5 117.9 19.3 45.7 29.1 94.3 29.1 144.4s-9.8 98.7-29.1 144.4c-18.7 44.2-45.4 83.8-79.5 117.9-34.1 34.1-73.7 60.8-117.9 79.5-45.7 19.3-94.3 29.1-144.4 29.1zM305.6 433.8c-0-0-0-0-0-0 0-21.042 17.058-38.1 38.1-38.1 21.042 0 38.1 17.058 38.1 38.1 0 0 0 0 0 0 0 0 0 0 0 0 0 21.042-17.058 38.1-38.1 38.1-21.042 0-38.1-17.058-38.1-38.1 0-0 0-0 0-0zM719.1 401.7c-7.2 0-13 5.8-13 13 0 13.9-10.1 25.2-22.6 25.2-12.5 0-22.6-11.3-22.6-25.2 0-7.2-5.8-13-13-13s-13 5.8-13 13c0 28.2 21.8 51.2 48.6 51.2s48.6-23 48.6-51.2c0-7.2-5.8-13-13-13zM418.1 346.3c0-49.2 42.4-89.4 94.2-89.4 51.8 0 94.2 40.2 94.2 89.4v22.8h-188.4v-22.8zM512.3 243.9c-59.1 0-107.2 45.9-107.2 102.4v35.8h214.5v-35.8c0-56.5-48.1-102.4-107.3-102.4zM431.1 356.1v-9.8c0-42.1 36.4-76.4 81.2-76.4s81.2 34.3 81.2 76.4v9.8h-162.4zM456.5 300.5c-0-12.205 24.983-22.1 55.8-22.1s55.8 9.895 55.8 22.1c0 12.205-24.983 22.1-55.8 22.1-30.817 0-55.8-9.895-55.8-22.1zM275.9 282.6c0-18.722 15.178-33.9 33.9-33.9s33.9 15.178 33.9 33.9c0 18.722-15.178 33.9-33.9 33.9-18.722 0-33.9-15.178-33.9-33.9zM243.2 482.1c-1.6 0-3.1 0.3-4.7 0.9-6.7 2.6-10 10.1-7.5 16.8 20.6 53.5 56.4 99.1 103.5 132.1 48.2 33.7 105 51.5 164 51.5 47.5 0 94.6-11.9 136.2-34.3 6.3-3.4 8.7-11.3 5.3-17.6-3.4-6.3-11.3-8.7-17.6-5.3-37.8 20.4-80.6 31.2-123.8 31.2-53.7 0-105.3-16.2-149.1-46.9-42.9-30-75.5-71.5-94.2-120.1-2-5.1-6.9-8.3-12.1-8.3zM277.7 118.9c-25.3 0-49.5 1.2-72.5 3.6-109 11.5-177.9 50.1-194.1 108.5-8.1 29.2-2.5 60.8 16.6 94 17.2 29.8 44.9 60 82.4 89.8 7.8 6.2 19.1 4.9 25.3-2.9 6.2-7.8 4.9-19.1-2.9-25.3-34-27-58.7-53.8-73.6-79.6-14.1-24.4-18.5-46.8-13.1-66.4 11.8-42.6 71.3-72.6 163.2-82.3 99-10.5 223.3 3.1 350.2 38.2 126.9 35.1 240.5 87.4 320 147.2 73.9 55.6 109.5 111.9 97.7 154.5-10.6 38.3-58.9 66.2-136 78.7-9.8 1.6-16.5 10.8-14.9 20.6 1.6 9.8 10.8 16.5 20.6 14.9 43.7-7.1 79.8-19 107.3-35.4 30.6-18.2 50-41.5 57.7-69.3 16.2-58.4-23.2-126.9-110.7-192.9-83-62.5-201-116.9-332.1-153.2-102-28-202.7-42.7-291.1-42.7z"  horiz-adv-x="1024" />
      
      <glyph glyph-name="telephone" unicode="&#59067;" d="M862.3-82.6h-719.6l90.1 73.2v784.2c0 45.4 36.8 82.2 82.2 82.2h547.4c45.4 0 82.2-36.8 82.2-82.2v-775.3c-0.1-45.3-36.9-82.1-82.3-82.1zM862.3-95.4h-719.6c-5.4 0-10.2 3.4-12 8.5s-0.2 10.8 4 14.2l85.4 69.4v778.1c0 52.3 42.6 94.9 94.9 94.9h547.4c52.3 0 94.9-42.6 94.9-94.9v-775.3c0-52.3-42.6-94.9-95-94.9zM178.6-69.9h683.8c38.3 0 69.4 31.2 69.4 69.4v775.3c0 38.3-31.2 69.4-69.4 69.4h-547.4c-38.3 0-69.4-31.2-69.4-69.4v-784.2c0-3.8-1.7-7.5-4.7-9.9l-62.3-50.6zM381.5 614.1c0-21.539 17.461-39 39-39s39 17.461 39 39c0 21.539-17.461 39-39 39-21.539 0-39-17.461-39-39zM698.3 614.1c0-21.539 17.461-39 39-39s39 17.461 39 39c0 21.539-17.461 39-39 39-21.539 0-39-17.461-39-39zM669.7 532c0-50-40.9-90.8-90.8-90.8-50 0-90.8 40.9-90.8 90.8M578.9 428.4c-57.1 0-103.6 46.5-103.6 103.6 0 7 5.7 12.7 12.7 12.7 7 0 12.7-5.7 12.7-12.7 0-43.1 35-78.1 78.1-78.1 43.1 0 78.1 35 78.1 78.1 0 7 5.7 12.7 12.7 12.7s12.7-5.7 12.7-12.7c0.2-57.2-46.3-103.6-103.4-103.6zM532.4 290h-204.3c-7 0-12.7 5.7-12.7 12.7s5.7 12.7 12.7 12.7h204.2c7 0 12.7-5.7 12.7-12.7 0.1-6.9-5.6-12.7-12.6-12.7zM532.4 185.3h-204.3c-7 0-12.7 5.7-12.7 12.7s5.7 12.7 12.7 12.7h204.2c7 0 12.7-5.7 12.7-12.7s-5.6-12.7-12.6-12.7zM532.4 80.6h-204.3c-7 0-12.7 5.7-12.7 12.7s5.7 12.7 12.7 12.7h204.2c7 0 12.7-5.7 12.7-12.7 0.1-7-5.6-12.7-12.6-12.7zM834.7 80.6h-199c-7 0-12.7 5.7-12.7 12.7s5.7 12.7 12.7 12.7h199c7 0 12.7-5.7 12.7-12.7 0.1-7-5.6-12.7-12.7-12.7zM798.8 158.7h-127.1c-15.5 0-28 12.5-28 28v92.7c0 15.5 12.5 28 28 28h127.2c15.5 0 28-12.5 28-28v-92.7c0-15.5-12.6-28-28.1-28zM799.4 146h-128.3c-22.2 0-40.2 18-40.2 40.2v93.8c0 22.2 18 40.2 40.2 40.2h128.3c22.2 0 40.2-18 40.2-40.2v-93.8c0-22.2-18-40.2-40.2-40.2zM671.1 294.7c-8.1 0-14.7-6.6-14.7-14.7v-93.8c0-8.1 6.6-14.7 14.7-14.7h128.3c8.1 0 14.7 6.6 14.7 14.7v93.8c0 8.1-6.6 14.7-14.7 14.7h-128.3zM152.3-82.6h-5.7c-44.5 0-80.5 36-80.5 80.5v661.1c0 28.3 22.9 51.2 51.2 51.2h115.5v-712.3c0-44.5-36.1-80.5-80.5-80.5zM149.4-95.4c-53 0-96.1 43.1-96.1 96.1v656.5c0 36.2 29.5 65.7 65.7 65.7h126.4v-722.2c0.1-53-43-96.1-96-96.1zM119.1 697.5c-22.2 0-40.2-18.1-40.2-40.2v-656.5c0-38.9 31.7-70.6 70.6-70.6s70.6 31.7 70.6 70.6v696.7h-101z"  horiz-adv-x="1024" />
      
      <glyph glyph-name="heart" unicode="&#59069;" d="M476.8 472.4c0-0 0-0 0-0 0-16.458 13.342-29.8 29.8-29.8 16.458 0 29.8 13.342 29.8 29.8 0 0 0 0 0 0 0 16.458-13.342 29.8-29.8 29.8-16.458 0-29.8-13.342-29.8-29.8 0-0 0-0 0-0zM717.8 781.5c-83.5 0-158.4-65.4-211.2-122-52.7 56.6-127.7 122-211.2 122-159.5 0-273.9-129.3-273.9-288.9 0-159.5 407.8-509.6 485.1-509.6s485.1 350.1 485.1 509.7c0.1 159.5-114.4 288.8-273.9 288.8zM506.6-30c-22 0-61 20.1-116 59.6-51.5 37-109.9 86.4-164.6 139-65.4 63-217.5 220.6-217.5 324 0 81.4 28.6 157.1 80.6 213.1 53.2 57.2 126.4 88.8 206.3 88.8 40 0 81.8-14.1 124.2-41.9 28.1-18.4 56.6-42.8 86.9-74.2 30.3 31.5 58.9 55.8 86.9 74.2 42.5 27.8 84.3 41.9 124.2 41.9 79.9 0 153.2-31.5 206.3-88.8 52-56 80.6-131.7 80.6-213.1 0-103.4-152.1-261-217.5-324-54.6-52.6-113.1-102-164.6-139-54.8-39.5-93.8-59.6-115.8-59.6zM295.4 768.5c-72.6 0-139.1-28.6-187.3-80.4-47.5-51.2-73.7-120.6-73.7-195.4 0-64.8 78.3-178.9 209.6-305.3 53.8-51.8 111.2-100.3 161.7-136.6 56.1-40.4 88.9-54.8 100.9-54.8s44.7 14.4 100.9 54.8c50.5 36.3 108 84.9 161.7 136.6 131.2 126.4 209.6 240.5 209.6 305.3 0 74.9-26.2 144.2-73.7 195.4-48.2 51.9-114.7 80.4-187.3 80.4-61.8 0-127.8-38.5-201.7-117.9-2.5-2.6-5.9-4.1-9.5-4.1s-7.1 1.5-9.5 4.1c-73.9 79.4-139.9 117.9-201.7 117.9zM320.1 480.4c0-0 0-0 0-0 0-18.667 15.133-33.8 33.8-33.8 18.667 0 33.8 15.133 33.8 33.8 0 0 0 0 0 0-0 18.667-15.133 33.8-33.8 33.8-18.667 0-33.8-15.133-33.8-33.8zM625.5 480.4c0-18.667 15.133-33.8 33.8-33.8s33.8 15.133 33.8 33.8c0 18.667-15.133 33.8-33.8 33.8-18.667 0-33.8-15.133-33.8-33.8zM411.6 357.5c0-52.3 42.8-95 95-95 52.3 0 95 42.8 95 95v31.7h-190v-31.7zM506.6 249.5c-59.6 0-108 48.5-108 108v31.7c0 7.2 5.8 13 13 13h190.1c7.2 0 13-5.8 13-13v-31.7c0-59.5-48.5-108-108.1-108zM424.6 376.2v-18.7c0-45.2 36.8-82 82-82s82 36.8 82 82v18.7h-164zM450.4 317.1c0-0 0-0 0-0 0-15.188 24.49-27.5 54.7-27.5 30.21 0 54.7 12.312 54.7 27.5 0 0 0 0 0 0 0 0 0 0 0 0 0 15.188-24.49 27.5-54.7 27.5-30.21 0-54.7-12.312-54.7-27.5 0-0 0-0 0-0zM256 393.3c0-0 0-0 0-0 0-15.188 14.372-27.5 32.1-27.5 17.728 0 32.1 12.312 32.1 27.5 0 0 0 0 0 0 0 0 0 0 0 0 0 15.188-14.372 27.5-32.1 27.5-17.728 0-32.1-12.312-32.1-27.5 0-0 0-0 0-0zM703.3 393.3c0-15.188 14.372-27.5 32.1-27.5s32.1 12.312 32.1 27.5c0 15.188-14.372 27.5-32.1 27.5-17.728 0-32.1-12.312-32.1-27.5z"  horiz-adv-x="1024" />
      
      <glyph glyph-name="music" unicode="&#59070;" d="M975.3 522l-642-35V694.6c0 37.6 30.5 68.1 68.1 68.1l505.8 35c37.6 0 68.1-30.5 68.1-68.1V522zM333.3 474c-3.3 0-6.5 1.3-8.9 3.6-2.6 2.5-4.1 5.9-4.1 9.4V694.6c0 44.6 36.1 80.9 80.7 81.1l505.3 35h0.9c44.7 0 81.1-36.4 81.1-81.1V522c0-6.9-5.4-12.6-12.3-13l-642-35h-0.7z m574.3 310.8l-505.3-35h-0.9c-30.4 0-55.1-24.7-55.1-55.1v-193.9l616 33.6V729.6c0 30.3-24.5 54.9-54.7 55.2zM333.3 105.8V487M333.3 92.8c-7.2 0-13 5.8-13 13V487c0 7.2 5.8 13 13 13s13-5.8 13-13v-381.2c0-7.2-5.8-13-13-13zM975.3 140.8V522M975.3 127.8c-7.2 0-13 5.8-13 13V522c0 7.2 5.8 13 13 13s13-5.8 13-13v-381.2c0-7.2-5.8-13-13-13zM188 113.1m-145.3 0a145.3 145.3 0 1 1 290.6 0 145.3 145.3 0 1 1-290.6 0ZM188-45.2c-87.3 0-158.3 71-158.3 158.3 0 87.3 71 158.3 158.3 158.3s158.3-71 158.3-158.3c0-87.3-71-158.3-158.3-158.3z m0 290.7c-73 0-132.3-59.4-132.3-132.3S115-19.2 188-19.2s132.3 59.4 132.3 132.3S261 245.5 188 245.5zM153.2 171.5m-34.7 0a34.7 34.7 0 1 1 69.4 0 34.7 34.7 0 1 1-69.4 0ZM834.7 148.1m-145.3 0a145.3 145.3 0 1 1 290.6 0 145.3 145.3 0 1 1-290.6 0ZM834.7-10.2c-87.3 0-158.3 71-158.3 158.3 0 87.3 71 158.3 158.3 158.3 87.3 0 158.3-71 158.3-158.3 0-87.3-71-158.3-158.3-158.3z m0 290.7c-73 0-132.3-59.4-132.3-132.3s59.4-132.3 132.3-132.3S967 75.2 967 148.1s-59.3 132.4-132.3 132.4zM800 206.5m-34.7 0a34.7 34.7 0 1 1 69.4 0 34.7 34.7 0 1 1-69.4 0Z"  horiz-adv-x="1024" />
      
      <glyph glyph-name="mail1" unicode="&#59075;" d="M964.6 693.8L599.8 367.3c-48.4-43.3-121.6-43.3-169.9 0L65 693.8c-19-13.5-31.5-35.5-31.5-60.6v-507c0-41.1 33.3-74.4 74.4-74.4h813.6c41.1 0 74.4 33.3 74.4 74.4v507c0.2 25.1-12.3 47.1-31.3 60.6zM921.7 39H108c-48.1 0-87.2 39.1-87.2 87.2v507c0 28.1 13.8 54.6 36.8 71l8.3 5.9 372.5-333.3c43.6-39 109.3-39 152.8 0l372.5 333.3 8.3-5.9c23.1-16.4 36.8-43 36.8-71v-507c0.1-48.1-39-87.2-87.1-87.2zM64.8 676.9c-11.6-11.5-18.3-27.2-18.3-43.7v-507c0-34 27.6-61.6 61.6-61.6h813.6c34 0 61.6 27.6 61.6 61.6v507c0 16.4-6.7 32.2-18.3 43.7L608.4 357.8c-53.3-47.7-133.7-47.7-187 0L64.8 676.9zM429.9 392.1L65 65.6c12.2-8.6 26.9-13.8 43-13.8h813.6c16.1 0 30.8 5.2 43 13.8L599.8 392.1c-48.4 43.3-121.5 43.3-169.9 0zM921.7 39H108c-18.1 0-35.5 5.6-50.4 16.2-3.2 2.3-5.2 5.8-5.4 9.7-0.2 3.9 1.3 7.7 4.2 10.3l364.8 326.5c53.3 47.7 133.7 47.7 187 0L973 75.2c2.9-2.6 4.5-6.4 4.2-10.3-0.2-3.9-2.2-7.5-5.4-9.7-14.6-10.6-32.1-16.2-50.1-16.2zM87.2 68.3c6.6-2.4 13.7-3.7 20.8-3.7h813.6c7.1 0 14.1 1.3 20.8 3.7L591.3 382.6c-43.6 39-109.3 39-152.8 0L87.2 68.3zM599.8 316.1l364.8 375.6c-12.2 9.9-26.9 15.9-43 15.9H108c-16.1 0-30.8-6-43-15.9l364.8-375.6c48.5-49.8 121.6-49.8 170 0zM514.8 265.9c-34.9 0-68.3 14.6-94.2 41.2L55.9 682.8c-2.5 2.6-3.8 6.1-3.6 9.7 0.2 3.6 1.9 6.9 4.7 9.2 15 12.3 32.7 18.8 51.1 18.8h813.6c18.4 0 36-6.5 51.1-18.8 2.8-2.3 4.5-5.6 4.7-9.2s-1.1-7.1-3.6-9.7L609 307.2c-25.8-26.6-59.3-41.3-94.2-41.3zM85.1 689.5l354-364.5c21-21.6 47.9-33.5 75.8-33.5s54.8 11.9 75.8 33.5l354 364.5c-7.3 3.5-15 5.4-22.9 5.4H108c-7.9-0.1-15.6-1.9-22.9-5.4zM260.1 544.3c0 24.6 17.2 44.8 38.2 44.8 21 0 38.2-20.1 38.2-44.8M336.6 531.5c-7.1 0-12.8 5.7-12.8 12.8 0 17.3-11.6 32-25.4 32-13.8 0-25.4-14.6-25.4-32 0-7.1-5.7-12.8-12.8-12.8-7.1 0-12.8 5.7-12.8 12.8 0 31.8 22.9 57.6 51.1 57.6 28.2 0 51.1-25.8 51.1-57.6-0.2-7.1-6-12.8-13-12.8zM693.1 544.3c0 24.6 17.2 44.8 38.2 44.8 21 0 38.2-20.1 38.2-44.8M769.6 531.5c-7.1 0-12.8 5.7-12.8 12.8 0 17.3-11.6 32-25.4 32-13.8 0-25.4-14.6-25.4-32 0-7.1-5.7-12.8-12.8-12.8s-12.8 5.7-12.8 12.8c0 31.8 22.9 57.6 51.1 57.6s51.1-25.8 51.1-57.6c-0.2-7.1-5.9-12.8-13-12.8zM419.7 512.6c0-46.3 42.8-84.2 95.1-84.2s95.1 37.9 95.1 84.2v28.1H419.7v-28.1zM514.8 415.6c-59.5 0-108 43.5-108 97v28.1c0 7.1 5.7 12.8 12.8 12.8H610c7.1 0 12.8-5.7 12.8-12.8v-28.1c0-53.5-48.4-97-108-97z m-82.3 112.3v-15.3c0-18.7 8.4-36.4 23.6-49.9 15.7-13.9 36.5-21.5 58.7-21.5 22.2 0 43 7.6 58.7 21.5 15.2 13.5 23.6 31.2 23.6 49.9v15.3H432.5zM458.6 483a54.7 27.6 0 1 1 109.4 0 54.7 27.6 0 1 1-109.4 0Z"  horiz-adv-x="1024" />
      
      <glyph glyph-name="notebook" unicode="&#59076;" d="M889.4 573.9h-131c-1.4 0-2.5 1.1-2.5 2.5V726.3c0 1.4 1.1 2.5 2.5 2.5h131c13.7 0 24.8-11.1 24.8-24.8v-105.4c0-13.6-11.1-24.7-24.8-24.7zM889.4 560.9h-131c-8.6 0-15.5 7-15.5 15.5V726.3c0 8.6 7 15.5 15.5 15.5h131c20.8 0 37.8-16.9 37.8-37.8v-105.4c0-20.7-17-37.7-37.8-37.7z m-120.5 26h120.5c6.5 0 11.8 5.3 11.8 11.8V704.1c0 6.5-5.3 11.8-11.8 11.8H768.9v-129zM864.2 416.4h-131c-1.4 0-2.5 1.1-2.5 2.5V568.8c0 1.4 1.1 2.5 2.5 2.5h131c13.7 0 24.8-11.1 24.8-24.8v-105.4c0-13.6-11.1-24.7-24.8-24.7zM864.2 403.4h-131c-8.6 0-15.5 7-15.5 15.5V568.8c0 8.6 7 15.5 15.5 15.5h131c20.8 0 37.8-16.9 37.8-37.8v-105.4c0-20.8-17-37.7-37.8-37.7z m-120.5 26h120.5c6.5 0 11.8 5.3 11.8 11.8V546.5c0 6.5-5.3 11.8-11.8 11.8H743.7v-128.9zM864.2 267.6h-131c-1.4 0-2.5 1.1-2.5 2.5V420c0 1.4 1.1 2.5 2.5 2.5h138.2c9.7 0 17.6-7.9 17.6-17.6v-112.6c0-13.6-11.1-24.7-24.8-24.7zM864.2 254.6h-131c-8.6 0-15.5 7-15.5 15.5V420c0 8.6 7 15.5 15.5 15.5h138.2c16.9 0 30.6-13.7 30.6-30.6v-112.6c0-20.7-17-37.7-37.8-37.7z m-120.5 26h120.5c6.5 0 11.8 5.3 11.8 11.8V405c0 2.5-2.1 4.6-4.6 4.6H743.7v-129zM747.7-65.1H255.5c-52.2 0-94.5 42.3-94.5 94.5V793.7c0 27.3 22.2 49.5 49.5 49.5h582.2c27.3 0 49.5-22.2 49.5-49.5v-764.2c0-52.2-42.3-94.6-94.5-94.6zM747.7-78.1H255.5c-59.3 0-107.5 48.2-107.5 107.5V793.7c0 34.5 28 62.5 62.5 62.5h582.2c34.5 0 62.5-28 62.5-62.5v-764.2c0-59.3-48.2-107.6-107.5-107.6zM210.5 830.2c-20.1 0-36.5-16.4-36.5-36.5v-764.2c0-45 36.6-81.5 81.5-81.5h492.1c45 0 81.5 36.6 81.5 81.5V793.7c0 20.1-16.4 36.5-36.5 36.5H210.5zM791.4 18.5H211.8c-28.1 0-50.8 22.7-50.8 50.8V792.4c0 28.1 22.7 50.8 50.8 50.8h579.6c28.1 0 50.8-22.7 50.8-50.8v-723.1c0-28.1-22.7-50.8-50.8-50.8zM791.4 5.5H211.8c-35.2 0-63.8 28.6-63.8 63.8V792.4c0 35.2 28.6 63.8 63.8 63.8h579.6c35.2 0 63.8-28.6 63.8-63.8v-723.1c0-35.2-28.6-63.8-63.8-63.8zM211.8 830.2c-20.8 0-37.8-17-37.8-37.8v-723.1c0-20.8 17-37.8 37.8-37.8h579.6c20.8 0 37.8 17 37.8 37.8V792.4c0 20.8-17 37.8-37.8 37.8H211.8zM357.8 528.8m-32.6 0a32.6 32.6 0 1 1 65.2 0 32.6 32.6 0 1 1-65.2 0ZM652.6 528.8m-32.6 0a32.6 32.6 0 1 1 65.2 0 32.6 32.6 0 1 1-65.2 0ZM505.2 403.4c-38.7 0-70.2 30.6-70.2 68.3v22.1c0 7.2 5.8 13 13 13s13-5.8 13-13v-22.1c0-23.3 19.8-42.3 44.2-42.3 24.4 0 44.2 19 44.2 42.3v22.1c0 7.2 5.8 13 13 13s13-5.8 13-13v-22.1c0-37.6-31.5-68.3-70.2-68.3zM198.2 711.9h-86.4c-9.4 0-17 7.6-17 17s7.6 17 17 17h86.4c9.4 0 17-7.6 17-17s-7.6-17-17-17zM198.2 617.9h-86.4c-9.4 0-17 7.6-17 17s7.6 17 17 17h86.4c9.4 0 17-7.6 17-17s-7.6-17-17-17zM198.2 524h-86.4c-9.4 0-17 7.6-17 17s7.6 17 17 17h86.4c9.4 0 17-7.6 17-17s-7.6-17-17-17zM198.2 430h-86.4c-9.4 0-17 7.6-17 17s7.6 17 17 17h86.4c9.4 0 17-7.6 17-17s-7.6-17-17-17zM198.2 336.1h-86.4c-9.4 0-17 7.6-17 17s7.6 17 17 17h86.4c9.4 0 17-7.6 17-17s-7.6-17-17-17zM198.2 242.2h-86.4c-9.4 0-17 7.6-17 17s7.6 17 17 17h86.4c9.4 0 17-7.6 17-17s-7.6-17-17-17zM198.2 148.2h-86.4c-9.4 0-17 7.6-17 17s7.6 17 17 17h86.4c9.4 0 17-7.6 17-17s-7.6-17-17-17z"  horiz-adv-x="1024" />
      
      <glyph glyph-name="delete1" unicode="&#59077;" d="M724.3 698H296.1l54.1 146.6h320zM724.3 679.5H296.1c-6.1 0-11.7 3-15.2 7.9-3.5 5-4.3 11.3-2.2 17L332.8 851c2.7 7.3 9.6 12.1 17.4 12.1h320c7.7 0 14.7-4.8 17.4-12.1l54.1-146.6c2.1-5.7 1.3-12-2.2-17-3.5-4.9-9.2-7.9-15.2-7.9z m-401.6 37h375.1L657.3 826.1H363.1l-40.4-109.6zM664.3-85.6H339.7c-54.2 0-98.5 43.3-99.6 97.5L223.7 661h572.9l-32.8-651.4c-2.3-53.2-46.1-95.2-99.5-95.2zM664.3-99H339.7c-29.7 0-57.8 11.4-79 32.2-21.2 20.8-33.3 48.6-34 78.3L210 674.4h600.7L777.2 9c-2.6-60.5-52.2-108-112.9-108zM237.4 647.7l16-635.5c0.5-22.7 9.7-44 25.9-59.8 16.2-15.9 37.7-24.6 60.4-24.6h324.6c46.3 0 84.2 36.2 86.2 82.5l32.1 637.4H237.4zM827.1 656.5H193.3c-22.2 0-40.4 18.2-40.4 40.4v2.2c0 22.2 18.2 40.4 40.4 40.4h633.8c22.2 0 40.4-18.2 40.4-40.4v-2.2c0-22.2-18.2-40.4-40.4-40.4zM826 643.1H194.4c-30.3 0-54.9 24.6-54.9 54.9 0 30.3 24.6 54.9 54.9 54.9H826c30.3 0 54.9-24.6 54.9-54.9s-24.7-54.9-54.9-54.9z m-631.6 83.1c-15.5 0-28.2-12.6-28.2-28.2s12.6-28.2 28.2-28.2H826c15.5 0 28.2 12.6 28.2 28.2 0 15.5-12.6 28.2-28.2 28.2H194.4zM354.6 465.7v-369.6M354.6 82.7c-7.4 0-13.4 6-13.4 13.4V465.7c0 7.4 6 13.4 13.4 13.4s13.4-6 13.4-13.4v-369.6c-0.1-7.4-6-13.4-13.4-13.4zM458.3 465.7v-369.6M458.3 82.7c-7.4 0-13.4 6-13.4 13.4V465.7c0 7.4 6 13.4 13.4 13.4s13.4-6 13.4-13.4v-369.6c0-7.4-6-13.4-13.4-13.4zM562.1 465.7v-369.6M562.1 82.7c-7.4 0-13.4 6-13.4 13.4V465.7c0 7.4 6 13.4 13.4 13.4s13.4-6 13.4-13.4v-369.6c-0.1-7.4-6.1-13.4-13.4-13.4zM665.8 465.7v-369.6M665.8 82.7c-7.4 0-13.4 6-13.4 13.4V465.7c0 7.4 6 13.4 13.4 13.4s13.4-6 13.4-13.4v-369.6c0-7.4-6-13.4-13.4-13.4z"  horiz-adv-x="1024" />
      
      <glyph glyph-name="chat" unicode="&#59086;" d="M1001 395.5c0-234.6-219.2-424.8-489.7-424.8-70.2 0-136.9 12.8-197.3 35.9-25.1 9.6-129.6-72.9-152.3-60-25.3 14.5 31.5 124.8 9.7 143C79.1 166.9 21.7 275.4 21.7 395.5c0 234.6 219.2 424.8 489.7 424.8S1001 630.1 1001 395.5zM168-68.3c-4.8 0-9.1 1-12.9 3.2-16.4 9.4-13.6 32.5-12.7 40.1 1.7 14 6.2 31 10.5 47.4 3.5 13.4 7.2 27.3 9 38.6 2.2 13.2 0.9 17.7 0.6 18.7-48.2 40.3-86.1 87.7-112.6 140.8-27.7 55.3-41.7 114.2-41.7 175 0 59.4 13.4 117 39.8 171.3 25.5 52.2 61.9 99.1 108.2 139.3 46.2 40.1 100 71.6 159.8 93.5 61.9 22.7 127.6 34.2 195.3 34.2s133.4-11.5 195.3-34.2c59.9-22 113.6-53.4 159.8-93.5 46.4-40.2 82.8-87.1 108.2-139.3 26.4-54.2 39.8-111.9 39.8-171.3 0-59.4-13.4-117-39.8-171.3-25.5-52.2-61.9-99.1-108.2-139.3-46.2-40.1-100-71.6-159.8-93.5-61.9-22.7-127.6-34.2-195.3-34.2-70.2 0-138 12.3-201.8 36.7-1 0.1-6.3 0.1-22.4-7.3-12.3-5.7-27.2-13.9-41.6-21.9-36-20.1-60.3-33-77.5-33zM511.3 806.8c-64.5 0-127.1-11-185.9-32.6-56.8-20.8-107.7-50.6-151.5-88.6-43.6-37.7-77.8-81.7-101.6-130.6-24.6-50.5-37.1-104.2-37.1-159.4 0-56.6 13.1-111.4 38.9-163C99 182.6 134.7 138 180.2 100c17.2-14.4 8.7-46.9-1.2-84.5-3.6-13.5-7.2-27.6-9.1-39-1.7-10.6-1.3-15.7-0.8-17.8 2.6 0.2 8.7 1.5 21.3 7.3 12.5 5.7 27.6 14.1 42.1 22.2 43.6 24.2 69.1 37.6 86.5 30.9 60.7-23.2 125.5-35 192.4-35 64.5 0 127.1 11 185.9 32.6 56.8 20.8 107.7 50.6 151.5 88.6 43.6 37.8 77.8 81.8 101.7 130.8 24.6 50.5 37.1 104.2 37.1 159.4 0 55.3-12.5 108.9-37.1 159.4-23.9 48.9-58.1 92.9-101.7 130.8-43.7 37.9-94.7 67.7-151.5 88.6-58.9 21.6-121.5 32.5-186 32.5zM717.4 490.9m-46.6 0a46.6 46.6 0 1 1 93.2 0 46.6 46.6 0 1 1-93.2 0ZM345.7 454c-7.5 0-13.5 6-13.5 13.5 0 18.3-13.5 33.2-30 33.2s-30-14.9-30-33.2c0-7.5-6-13.5-13.5-13.5s-13.5 6-13.5 13.5c0 33.2 25.6 60.2 57 60.2s57-27 57-60.2c0-7.4-6.1-13.5-13.5-13.5zM396.2 363.3c0-60.1 51.8-109.2 115.2-109.2 63.3 0 115.2 49.1 115.2 109.2v27.9H396.2v-27.9zM511.3 240.6c-70.9 0-128.7 55.1-128.7 122.7v41.4H640v-41.4c0-67.7-57.7-122.7-128.7-122.7zM409.7 377.7v-14.4c0-52.8 45.6-95.7 101.7-95.7s101.7 42.9 101.7 95.7v14.4H409.7zM443.2 307.4a68.1 27.1 0 1 1 136.2 0 68.1 27.1 0 1 1-136.2 0ZM175.9 334.2m-42.5 0a42.5 42.5 0 1 1 85 0 42.5 42.5 0 1 1-85 0ZM853.4 334.2m-42.5 0a42.5 42.5 0 1 1 85 0 42.5 42.5 0 1 1-85 0Z"  horiz-adv-x="1024" />
      
      <glyph glyph-name="chuangzuo-tianchong" unicode="&#58971;" d="M815.104 662.3232c0 28.16-26.9312 51.2-60.16 51.2H481.28c112.2304-78.08 183.8592-196.608 183.8592-329.3696s-71.68-251.2896-183.8592-329.3696h273.8688c33.2288 0 60.16 22.8864 60.16 51.2zM779.8784 17.8688H334.0288A95.0784 95.0784 0 0 0 239.104 112.64V655.36a94.72 94.72 0 0 0 94.6176 94.7712h447.744A94.1568 94.1568 0 0 0 875.52 656.0768v-542.72a95.744 95.744 0 0 0-95.6416-95.488z m-446.1568 670.72A33.2288 33.2288 0 0 1 300.544 655.36v-542.72a33.5872 33.5872 0 0 1 33.4848-33.536h445.8496a34.2528 34.2528 0 0 1 34.2016 34.2016v542.72a32.6656 32.6656 0 0 1-32.6144 32.6144zM448.7168 580.8128m30.72 0l245.1968 0q30.72 0 30.72-30.72l0 0q0-30.72-30.72-30.72l-245.1968 0q-30.72 0-30.72 30.72l0 0q0 30.72 30.72 30.72ZM448.7168 465.664m30.72 0l104.6528 0q30.72 0 30.72-30.72l0 0q0-30.72-30.72-30.72l-104.6528 0q-30.72 0-30.72 30.72l0 0q0 30.72 30.72 30.72ZM179.2 613.1712m30.72 0l119.808 0q30.72 0 30.72-30.72l0 0q0-30.72-30.72-30.72l-119.808 0q-30.72 0-30.72 30.72l0 0q0 30.72 30.72 30.72ZM179.2 479.0272m30.72 0l119.808 0q30.72 0 30.72-30.72l0 0q0-30.72-30.72-30.72l-119.808 0q-30.72 0-30.72 30.72l0 0q0 30.72 30.72 30.72ZM179.2 344.832m30.72 0l119.808 0q30.72 0 30.72-30.72l0 0q0-30.72-30.72-30.72l-119.808 0q-30.72 0-30.72 30.72l0 0q0 30.72 30.72 30.72Z"  horiz-adv-x="1024" />
      
      <glyph glyph-name="twitter" unicode="&#58882;" d="M962.267429 662.820571q-38.253714-56.027429-92.598857-95.451429 0.585143-7.972571 0.585143-23.990857 0-74.313143-21.723429-148.260571t-65.974857-141.970286-105.398857-120.32-147.456-83.456-184.539429-31.158857q-154.843429 0-283.428571 82.870857 19.968-2.267429 44.544-2.267429 128.585143 0 229.156571 78.848-59.977143 1.170286-107.446857 36.864t-65.170286 91.136q18.870857-2.852571 34.889143-2.852571 24.576 0 48.566857 6.290286-64 13.165714-105.984 63.707429t-41.984 117.394286l0 2.267429q38.838857-21.723429 83.456-23.405714-37.741714 25.161143-59.977143 65.682286t-22.308571 87.990857q0 50.322286 25.161143 93.110857 69.12-85.138286 168.301714-136.265143t212.260571-56.832q-4.534857 21.723429-4.534857 42.276571 0 76.580571 53.979429 130.56t130.56 53.979429q80.018286 0 134.875429-58.294857 62.317714 11.995429 117.174857 44.544-21.138286-65.682286-81.115429-101.741714 53.174857 5.705143 106.276571 28.598857z"  horiz-adv-x="1024" />
      
      <glyph glyph-name="wechat" unicode="&#58883;" d="M1024.16 201.184c0 149.92-143.104 271.392-319.584 271.392-176.576 0-319.68-121.504-319.68-271.392S528-70.208 704.576-70.208c55.456 0 107.648 12.096 153.184 33.248l125.984-54.528-14.592 140.544c34.784 43.392 55.04 95.808 55.04 152.128zM596.832 274.72c-25.152 0-45.472 20.352-45.472 45.472s20.32 45.472 45.472 45.472c25.12 0 45.44-20.384 45.44-45.472s-20.384-45.472-45.44-45.472z m215.392 0c-25.056 0-45.44 20.352-45.44 45.472s20.384 45.472 45.44 45.472c25.184 0 45.536-20.384 45.536-45.472s-20.352-45.472-45.536-45.472zM704.576 508.512c49.376 0 96.416-8.8 139.264-24.64 0.32 5.728 0.992 11.232 0.992 16.992 0 198.08-189.152 358.624-422.432 358.624C189.184 859.488 0.032 698.976 0.032 500.864c0-74.496 26.816-143.776 72.704-201.12L53.472 114.08l166.432 72.096c41.216-19.2 86.784-32.16 134.88-38.784-3.616 17.504-5.824 35.424-5.824 53.792 0.032 169.44 159.552 307.296 355.616 307.296z m-139.808 209.6c33.184 0 60-26.88 60-60 0-33.184-26.816-60.064-60-60.064s-60.032 26.88-60.032 60.064c0 33.152 26.88 60 60.032 60zM280.032 598.048c-33.184 0-60 26.88-60 60.064 0 33.152 26.848 60 60 60 33.184 0 60.032-26.88 60.032-60s-26.88-60.064-60.032-60.064z"  horiz-adv-x="1025" />
      
      <glyph glyph-name="weibo" unicode="&#58894;" d="M1012.49 444.447v-0.159c-6.697-20.66-28.861-31.99-49.449-25.288a39.352 39.352 0 0 0-25.287 49.582l-0.067 0.031c20.536 63.6 7.516 136.156-40.315 189.363-47.892 53.212-118.502 73.554-183.731 59.659-21.222-4.537-42.133 9.047-46.638 30.3-4.506 21.253 9.021 42.194 30.239 46.73 91.709 19.563 191.114-8.98 258.467-83.881 67.36-74.839 85.515-176.85 56.781-266.337zM740.429 591.652v0.03c-18.217-3.973-36.178 7.732-40.06 26.01-3.947 18.31 7.763 36.373 25.98 40.254 44.692 9.548 93.143-4.322 125.885-40.781 32.866-36.496 41.631-86.17 27.607-129.772a33.833 33.833 0 0 0-42.562-21.847c-17.782 5.76-27.484 24.914-21.724 42.69h-0.062c6.887 21.346 2.565 45.635-13.46 63.473-16.026 17.818-39.752 24.546-61.604 19.943z m30.05-192.184c-14.46 4.352-24.352 7.326-16.774 26.352 16.333 41.313 18.027 76.964 0.317 102.385-33.31 47.734-124.451 45.133-228.838 1.28 0 0.061-32.799-14.367-24.412 11.704 16.056 51.774 13.645 95.186-11.361 120.192-56.658 56.878-207.304-2.12-336.477-131.64C56.187 432.68 0 329.86 0 240.9 0 70.82 217.503-32.594 430.28-32.594c278.917 0 464.527 162.504 464.527 291.59 0 77.936-65.546 122.193-124.329 140.472zM430.842 28.38c-169.774-16.84-316.35 60.155-327.368 171.96-11.049 111.74 117.72 216.034 287.488 232.873 169.805 16.84 316.355-60.16 327.368-171.904 11.018-111.866-117.683-216.09-287.488-232.929zM447.805 347.141c-80.783 21.09-172.119-19.287-207.206-90.65-35.743-72.862-1.188-153.681 80.44-180.1 84.578-27.357 184.233 14.525 218.88 93.148 34.181 76.81-8.478 155.94-92.114 177.602zM386.12 161.208c-16.43-26.29-51.584-37.806-78.065-25.661-26.107 11.889-33.833 42.44-17.403 68.045 16.215 25.538 50.207 36.869 76.498 25.856 26.604-11.392 35.087-41.687 18.97-68.24z"  horiz-adv-x="1026" />
      
      <glyph glyph-name="qzone" unicode="&#58959;" d="M504.768 871.776c-5.216-2.144-19.872-17.728-19.872-21.28 0-1.184-22.944-49.888-51.072-108.064S381.568 633.44 380.16 629.408c-1.184-3.776-3.328-8.288-4.256-9.696-1.184-1.408-7.808-14.176-14.88-28.384-7.552-15.616-15.616-28.608-20.096-32.16-10.88-9.216-3.552-8.288-221.312-32.64C21.248 515.424 10.368 513.76 4.48 508.32c-4.256-3.776-5.92-17.504-2.848-25.536 0.96-2.112 43.264-42.336 94.112-89.376 160.768-148.48 150.368-138.08 150.368-149.184 0-5.44-3.296-25.056-7.104-43.968-4.032-18.912-12.992-66.208-20.32-105.216s-15.84-83.712-18.912-99.296c-16.32-83.232-16.544-85.6-8.032-94.592 8.032-8.512 17.248-7.552 41.6 4.736 22.688 11.584 24.832 12.768 69.504 39.008 16.32 9.472 37.6 21.76 47.296 27.2s27.648 16.064 39.712 23.392 22.464 13.248 23.168 13.248c0.48 0 7.808 4.256 16.064 9.472s15.84 9.44 16.8 9.44c0.96 0 9.472 4.736 18.912 10.624 22.464 13.952 41.856 21.056 52.96 18.912 4.736-0.96 16.064-5.44 25.056-10.4 23.648-12.544 172.608-98.368 218.944-126.016 39.488-23.648 51.072-28.128 64.544-24.576 8.992 2.144 11.584 15.136 8.512 40.896-1.408 11.584-3.552 24.608-4.736 29.088-1.888 7.552-9.696 49.408-28.608 154.4-8.736 49.888-8.736 50.848 10.88 58.176 27.2 10.176 39.968 19.136 35.008 24.128-1.664 1.664-16.8-0.256-48.224-5.92-58.4-10.624-70.464-12.288-132.16-17.984-70.208-6.624-135.008-8.032-221.568-4.96-67.616 2.368-148 8.288-152.512 11.104-3.552 2.368-1.888 9.696 3.552 14.432 2.848 2.592 38.784 28.384 79.68 57.44 128.16 90.784 211.392 150.848 218.24 157.248 11.808 11.104 10.88 11.584-38.304 17.984-77.792 9.92-98.112 11.584-224.864 17.504-42.336 1.888-80.64 4.256-85.12 4.96-46.336 7.808 189.856 29.088 289.632 26.016 65.504-1.888 142.592-7.328 187.968-13.248 42.336-5.664 44.928-6.144 44.928-10.88 0-3.776-4.48-7.104-104.032-75.648-40.896-28.384-84.416-58.4-96.704-66.912-12.064-8.512-24.576-17.248-27.424-19.136-13.248-8.992-57.696-39.968-69.984-48.928-7.808-5.664-13.952-11.808-13.952-13.728 0-4.48 11.584-7.328 47.296-11.584 94.816-11.104 271.2-17.248 279.008-9.472 1.664 1.664 1.408 6.848-1.184 17.728-1.888 8.288-3.552 16.096-3.552 17.248 0 3.328 40.192 43.52 95.744 95.52 146.816 137.6 150.144 140.928 150.144 151.808 0 9.472-7.808 17.984-19.392 20.8-5.664 1.408-39.488 5.216-75.2 8.736-35.712 3.328-75.2 7.104-87.488 8.288-12.288 1.408-38.304 4.032-57.92 6.144-74.944 7.552-97.888 10.4-103.328 12.992-10.4 4.736-20.096 24.128-91.744 185.376C537.824 851.2 533.344 860.416 526.24 866.784c-5.888 5.44-15.104 7.552-21.504 4.96z"  horiz-adv-x="1024" />
      
      <glyph glyph-name="qq" unicode="&#58960;" d="M68.399765 305.38434500000005c-37.073602-90.765025-43.465533-176.418105-14.062849-191.757941 20.45478-11.505876 53.692423 14.061849 84.374094 60.084355 11.504876-51.135451 42.186547-95.87897 84.373094-132.952572-44.743519-16.619821-74.146204-44.743519-74.146204-75.42519 0-51.135451 79.259149-93.321998 176.418105-93.321997 88.208052 0 161.07627 33.237643 175.138119 77.982162h20.45478C535.009753-94.75135699999998 607.87897-127.98900000000003 696.087023-127.98900000000003c98.436943 0 176.418105 40.908561 176.418104 93.321997 0 30.68167-29.402684 58.806368-74.146203 75.42519 42.186547 37.073602 72.868217 81.817121 84.374094 132.952572 30.68067-46.022506 62.640327-71.589231 84.373093-60.084355 30.68167 15.339835 24.289739 102.270901-14.061849 191.757941-29.403684 70.311245-69.033258 122.725682-99.714929 134.230558 0 3.835959 1.278986 8.949904 1.278987 14.062849 0 26.845712-7.669918 52.413437-20.454781 72.868217v5.112945c0 12.783863-2.555973 24.289739-7.669917 34.516629C818.813704 750.263566 701.200968 896 510.722014 896 320.24206 896 202.630323 750.263566 194.959406 566.1755430000001c-5.112945-10.22689-7.669918-21.732767-7.669918-34.516629v-5.112945c-12.783863-20.45478-20.45478-46.022506-20.45478-72.869217v-14.061849c-28.123698-11.504876-69.032258-62.640327-98.434943-134.230558z"  horiz-adv-x="1024" />
      
      <glyph glyph-name="github" unicode="&#58961;" d="M465.981-105.74a89.578 89.578 0 0 0-89.889 88.955l-0.356 63.666c-176.662-38.422-213.927 74.93-213.927 74.93-28.895 73.372-70.523 92.873-70.523 92.873-57.61 39.446 4.364 38.645 4.364 38.645 63.71-4.452 97.28-65.447 97.28-65.447 56.631-97.058 148.569-69.009 184.765-52.803 5.699 41.049 22.172 69.053 40.337 84.947-141.045 16.028-289.303 70.523-289.303 313.79 0 69.32 24.799 125.952 65.447 170.429-6.589 16.028-28.316 80.584 6.144 168.025 0 0 53.337 17.052 174.659-65.09a609.28 609.28 0 0 0 158.943 21.37c53.915-0.223 108.276-7.257 159.031-21.37C814.186 889.321 867.434 872.27 867.434 872.27c34.549-87.485 12.822-152.042 6.233-168.025 40.693-44.433 65.358-101.109 65.358-170.43 0-243.89-148.57-297.583-289.926-313.299 22.751-19.723 43.053-58.323 43.053-117.582 0-84.992-0.312-119.674-0.312-119.674a89.622 89.622 0 0 0-89.8-89H465.98z"  horiz-adv-x="1024" />
      
      <glyph glyph-name="csdn" unicode="&#58962;" d="M512 896c282.784 0 512-229.216 512-512s-229.216-512-512-512S0 101.216 0 384 229.216 896 512 896z m189.952-752l11.2 108.224c-31.904-9.536-100.928-16.128-147.712-16.128-134.464 0-205.728 47.296-195.328 146.304 11.584 110.688 113.152 145.696 232.64 145.696 54.784 0 122.432-8.8 151.296-18.336L768 623.296C724.544 633.76 678.272 640 599.584 640c-203.2 0-388.704-94.88-406.4-263.488C178.336 235.04 303.584 128 535.616 128c80.672 0 138.464 6.432 166.336 16z"  horiz-adv-x="1024" />
      
      <glyph glyph-name="ins" unicode="&#58963;" d="M0 896z m790.037-519.76c0-149.27-121.04-270.277-270.276-270.277-149.269 0-270.276 121.007-270.276 270.276a266.31 266.31 0 0 0 5.1 51.976H72.767v-359.252c0-77.12 62.468-139.718 139.718-139.718h614.552c77.12 0 139.718 62.533 139.718 139.718V428.215H785.001a271.41 271.41 0 0 0 5.036-51.976z m37 446.993H212.485c-77.185 0-139.718-62.566-139.718-139.718v-151.348h226.29c48.923 69.129 129.518 114.348 220.704 114.348s171.78-45.22 220.703-114.348h226.291V683.515c0 77.12-62.566 139.718-139.718 139.718z m68.349-172.56c0-13.774-11.24-24.949-24.949-24.949h-74.78c-13.71 0-24.95 11.24-24.95 24.949v74.845c0 13.774 11.273 24.949 24.95 24.949h74.78c13.774 0 24.949-11.24 24.949-24.949v-74.845zM686.084 376.239c0 91.9-74.488 166.324-166.323 166.324s-166.324-74.424-166.324-166.324 74.489-166.323 166.324-166.323 166.323 74.423 166.323 166.323z"  horiz-adv-x="1031" />
      
      <glyph glyph-name="momo" unicode="&#58964;" d="M840.9 691.8c-2.7 2.8-5.4 5.6-8.1 8.3C747.6 785.2 634.6 832 514.3 832h-3.2c-121.5-0.9-235.1-49.3-319.9-136.5-81.8-84.1-126.9-195.6-127-313.8 0-118.2 45-229.7 126.7-313.9 2.8-2.9 5.6-5.7 8.4-8.4C280.5-20 390.8-64 506-64c10.5 0 21.1 0.4 31.7 1.1L847-41.2l-7 99.7 97.1-6.8 21.5 306.4c8.8 124.1-34.2 245.7-117.7 333.7z m16.7-326.6l-21.5-305.6-305.5-21.5c-97.7-6.8-192.5 27.3-260.4 93.6-2.2 2.1-4.4 4.3-6.5 6.5-130.3 134.2-130.3 352.4 0.2 486.5 65.7 67.6 153.8 105.2 248 105.8h2.5c93.3 0 180.8-36.3 246.8-102.3 2.1-2.1 4.2-4.3 6.3-6.5 64-67.1 96.8-160.7 90.1-256.5zM378.9 507.6c-30.9 0-56-24.3-56-54.2v-81.5c0-29.9 25.1-54.2 56-54.2 30.8 0 56 24.3 56 54.2v81.5c-0.1 29.8-25.2 54.2-56 54.2z m223.3 0c-30.8 0-56-24.3-56-54.2v-81.5c0-29.9 25.1-54.2 56-54.2 30.8 0 55.9 24.3 55.9 54.2v81.5c0 29.8-25.1 54.2-55.9 54.2z"  horiz-adv-x="1024" />
      
      <glyph glyph-name="Facebook" unicode="&#58965;" d="M933.8 700.787c0 58.296-47.259 105.554-105.554 105.554h-633.12c-58.296 0-105.554-47.258-105.554-105.554v-633.12c0-58.295 47.258-105.554 105.554-105.554h633.12c58.295 0 105.554 47.259 105.554 105.554v633.12zM776.21 595.54H669.787v-105.4H776.21v-105.401H669.787v-317.225h-105.4V384.739H458.985v105.4h105.4V628.1c0 35.433 39.029 72.84 78.785 72.84H776.21v-105.4z"  horiz-adv-x="1024" />
      
      <glyph glyph-name="alipay" unicode="&#58966;" d="M1023.795 42.36v-6.348a163.807 163.807 0 0 0-163.807-163.807h-696.18A163.807 163.807 0 0 0 0 36.012v696.18A163.807 163.807 0 0 0 163.807 896h696.181a163.807 163.807 0 0 0 163.807-163.807V42.36zM844.836 247.733c-40.952 14.333-95.623 34.809-156.846 57.128a949.058 949.058 0 0 1 90.094 222.573H573.325V588.86h245.711v43.41l-245.71-2.458V752.67H472.173c-18.223 0-21.704-20.476-21.704-20.476v-102.38H204.759v-40.952h245.71v-61.427H245.712v-40.952h409.518a805.522 805.522 0 0 0-64.909-148.246c-128.384 42.795-266.186 77.604-354.233 55.08a213.564 213.564 0 0 1-112.003-63.27c-95.418-116.917-26.21-294.034 175.274-294.034 119.989 0 236.087 67.366 325.771 177.73 134.322-65.932 398.666-176.297 398.666-176.297V194.7s-32.352 4.095-178.96 53.033z m-563.702-144.97c-158.893 0-204.759 124.699-126.336 194.112a191.86 191.86 0 0 0 90.913 46.276c93.575 10.238 189.811-35.629 293.624-86.614-74.941-94.598-166.674-153.774-258.2-153.774z"  horiz-adv-x="1024" />
      
      <glyph glyph-name="xiaoenai" unicode="&#58967;" d="M281.7 650.35c25.06 9.84 52.84 12.47 79.31 7.55 23.17-4.22 45.32-13.35 65.39-25.56 14.52-10.59 27.57-23.04 39.94-36.03 13.65-14.91 26.52-30.66 37.19-47.86 2.53-3.78 3.93-8.43 7.49-11.43 3.21 2.87 5.42 6.6 8.03 9.99 4.76 6.5 10.21 12.46 15.24 18.75 11.6 14.29 23.13 28.71 36.38 41.53 13.98 13.78 29.88 25.84 47.69 34.24 34.38 16.05 74.21 20.3 111.2 11.82 34.7-8.1 65.85-29.1 87.64-57.13 23.99-30.73 40.25-67.55 46.26-106.1 3.4-21.22 3.34-42.86 1.17-64.2-2.82-28.45-10.92-56.81-26.59-80.94-8.61-13.37-19.32-25.32-31.24-35.82-47.85-42.77-101.03-79.23-156.47-111.42-82.84-48.28-170.71-86.97-257.69-127.03 9.03 17.82 16.15 37.11 16.81 57.27 0.57 15.71-3.44 31.52-11.33 45.1-9.28 16.12-23 29.14-37.63 40.38-30.56 23.28-65.79 39.19-97.91 60.05-28.32 18.15-55.09 39.97-73.92 68.18-12.3 18.22-20.93 38.84-25.58 60.32-6.14 28.23-6.2 57.61-1.55 86.07 5.95 35.46 19.26 69.9 40.18 99.25 19.92 28.04 47.95 50.41 79.99 63.02z"  horiz-adv-x="1024" />
      
      <glyph glyph-name="linkedin" unicode="&#58968;" d="M76.43 534.274h185.949v-597.36H76.429v597.36zM169.46 831.24c59.45 0 107.652-48.27 107.652-107.624 0-59.416-48.202-107.679-107.651-107.679-59.662 0-107.772 48.263-107.772 107.679C61.688 782.97 109.798 831.24 169.461 831.24M378.943 534.274h178.074v-81.644h2.526c24.76 47.003 85.404 96.498 175.787 96.498 187.963 0 222.73-123.667 222.73-284.553v-327.66h-185.6V227.347c0 69.336-1.374 158.46-96.56 158.46-96.684 0-111.423-75.456-111.423-153.333v-295.56H378.943v597.36z"  horiz-adv-x="1024" />
      
      <glyph glyph-name="skype" unicode="&#58969;" d="M781.588 272.819c0 22.201-4.305 42.506-12.93 60.885-8.624 18.439-19.386 33.596-32.301 45.592-12.884 11.967-29.08 22.864-48.573 32.603-19.492 9.769-37.795 17.325-54.94 22.683a765.693 765.693 0 0 1-58.25 15.338l-69.27 15.94c-13.29 3.116-23.06 5.434-29.29 6.984-6.262 1.536-13.999 4.094-23.256 7.662-9.272 3.582-15.925 7.15-19.944 10.656s-7.691 8.174-10.988 13.969a40.505 40.505 0 0 0-5.027 19.944c0 34.183 31.955 51.282 95.836 51.282 19.1 0 36.17-2.665 51.297-8.008 15.097-5.328 27.093-11.665 35.944-18.996a538.108 538.108 0 0 0 25.317-22.307 128.845 128.845 0 0 1 26.582-19.341 65.4 65.4 0 0 1 31.94-7.993c20.862 0 37.6 7.09 50.259 21.283 12.689 14.194 19.01 31.309 19.01 51.298 0 24.414-12.417 46.48-37.313 66.168-24.866 19.718-56.37 34.68-94.466 44.885-38.097 10.235-78.511 15.353-121.139 15.353-30.149 0-59.44-3.447-87.828-10.326a306.338 306.338 0 0 1-79.564-31.278 160.409 160.409 0 0 1-59.215-57.92c-14.811-24.655-22.262-53.148-22.307-85.525 0-27.109 4.2-50.725 12.599-70.88a126.436 126.436 0 0 1 37.313-50.273 226.848 226.848 0 0 1 53.24-32.287c19.025-8.173 41.889-15.368 68.576-21.644l97.19-23.933c39.918-9.754 64.784-17.776 74.538-23.963 14.194-8.85 21.298-22.171 21.298-39.917 0-17.325-8.85-31.67-26.566-42.959-17.762-11.289-41.032-16.948-69.887-16.948-22.593 0-42.913 3.537-60.915 10.656-18.002 7.105-32.422 15.64-43.274 25.619-10.838 9.994-20.923 20.004-30.24 29.998s-19.507 18.53-30.585 25.649a65.461 65.461 0 0 1-35.96 10.642c-22.216 0-38.954-6.638-50.243-19.929-11.304-13.306-16.948-29.938-16.948-49.912 0-40.836 27.063-75.757 81.19-104.792 54.127-29.02 118.67-43.56 193.628-43.59 32.347 0 63.43 4.094 93.172 12.327 29.773 8.233 56.926 20.11 81.536 35.598 24.595 15.518 44.223 36.245 58.854 62.21 14.675 25.964 21.99 55.105 21.99 87.497h-0.09z m241.584-144.409c0-70.563-24.941-130.771-74.883-180.684-49.913-49.912-110.136-74.913-180.684-74.913-57.71 0-109.608 17.761-155.728 53.254-34.183-7.105-67.478-10.657-99.854-10.657-63.43 0-124.119 12.312-182.054 36.983-57.935 24.655-107.847 57.92-149.767 99.84s-75.2 91.846-99.84 149.751A460.229 460.229 0 0 0 43.38 384.038c0 32.376 3.552 65.656 10.657 99.854C18.544 530.042 0.797 581.986 0.797 639.62c0 70.533 24.957 130.771 74.9 180.684C125.608 870.216 185.831 895.187 256.38 895.187c57.694 0 109.593-17.746 155.728-53.239a489.053 489.053 0 0 0 99.84 10.672C575.39 852.62 636.05 840.278 694 815.638c57.95-24.67 107.847-57.935 149.752-99.855 41.92-41.905 75.184-91.832 99.84-149.767a459.898 459.898 0 0 0 36.967-182.054c0-32.346-3.522-65.626-10.642-99.84 35.523-46.179 53.254-98.063 53.254-155.712z"  horiz-adv-x="1024" />
      
      <glyph glyph-name="line" unicode="&#58970;" d="M553.967 896C248.01 896 0 700.769 0 459.96c0-223.685 214.083-407.92 489.757-433.017a33.708 33.708 0 0 0 22.512-14.705c12.237-20.145 3.542-63.069-5.96-111.197s42.169-23.149 53.6-17.576c9.1 4.415 243.31 136.444 382.742 265.921 101.963 79.1 165.25 189.02 165.25 310.558C1107.934 700.769 859.908 896 553.967 896zM369.311 345.843a29.545 29.545 0 0 0-29.78-29.276H238.257c-17.878 0-41.698 6.178-41.698 35.135v216.55a29.528 29.528 0 0 0 29.78 29.277h5.959a29.528 29.528 0 0 0 29.78-29.276v-187.275h77.438a29.545 29.545 0 0 0 29.796-29.276v-5.859z m83.482 5.825a29.746 29.746 0 0 0-59.493 0V562.042a29.746 29.746 0 0 0 59.493 0v-210.374z m262.01 0a32.92 32.92 0 0 0-29.78-29.276 33.708 33.708 0 0 0-35.102 16.787l-95.954 134.58v-122.057a29.78 29.78 0 0 0-59.543 0V562.411a29.511 29.511 0 0 0 29.763 29.26 37.67 37.67 0 0 0 33.759-21.437c9.232-13.631 97.364-136.511 97.364-136.511V562.41a29.797 29.797 0 0 0 59.576 0v-210.709z m178.696 134.614a29.276 29.276 0 1 0 0-58.552H816.06v-46.819h77.438a29.276 29.276 0 1 0 0-58.536H777.35a26.557 26.557 0 0 0-26.859 26.322V565.298a26.557 26.557 0 0 0 26.86 26.339h116.148a29.276 29.276 0 1 0 0-58.536H816.06v-46.835h77.438z"  horiz-adv-x="1107" />
      
      <glyph glyph-name="picture__easy" unicode="&#58881;" d="M39.384615 876.307692h945.23077v-984.615384H39.384615zM275.692308 628.795077m-89.974154 0a89.974154 89.974154 0 1 1 179.948308 0 89.974154 89.974154 0 1 1-179.948308 0ZM39.384615 88.615385h945.23077v-196.923077H39.384615zM964.923077 263.660308L945.230769 285.538462 708.923077 502.153846 502.153846 275.692308l107.972923-107.972923L689.230769 88.615385h275.692308zM610.126769 167.719385L394.180923 383.665231 59.076923 88.615385h630.153846z"  horiz-adv-x="1024" />
      
      <glyph glyph-name="tupian" unicode="&#60880;" d="M805.3248-43.264H217.6c-73.5232 0-133.12 59.5968-133.12 133.12V677.5808c0 73.5232 59.5968 133.12 133.12 133.12h587.7248c73.5232 0 133.12-59.5968 133.12-133.12v-587.7248c0-73.5232-59.5968-133.12-133.12-133.12zM767.3344-5.2224H244.992c-73.5232 0-133.12 59.5968-133.12 133.12V650.1888c0 73.5232 59.5968 133.12 133.12 133.12h522.3424c73.5232 0 133.12-59.5968 133.12-133.12v-522.3424c0-73.472-59.5968-133.0688-133.12-133.0688zM724.1216 37.9904H279.9616c-73.5232 0-133.12 59.5968-133.12 133.12V615.2704c0 73.5232 59.5968 133.12 133.12 133.12h444.16c73.5232 0 133.12-59.5968 133.12-133.12v-444.16c0-73.5232-59.5968-133.12-133.12-133.12zM700.0576 71.1168h-406.016c-65.7408 0-119.04 53.2992-119.04 119.04v406.016c0 65.7408 53.2992 119.04 119.04 119.04h406.016c65.7408 0 119.04-53.2992 119.04-119.04v-406.016c0-65.7408-53.2992-119.04-119.04-119.04zM315.7504 573.7472m-100.352 0a100.352 100.352 0 1 1 200.704 0 100.352 100.352 0 1 1-200.704 0ZM315.7504 573.7472m-67.1744 0a67.1744 67.1744 0 1 1 134.3488 0 67.1744 67.1744 0 1 1-134.3488 0ZM312.0128 577.8944m-53.9648 0a53.9648 53.9648 0 1 1 107.9296 0 53.9648 53.9648 0 1 1-107.9296 0ZM596.9408 232.0896l-129.3824 86.4256a59.4688 59.4688 0 0 1-61.9008 2.56L84.48 143.2064v-56.6784c0-71.68 58.112-129.7408 129.7408-129.7408h594.4832c71.68 0 129.7408 58.112 129.7408 129.7408V437.9136L665.6 233.8816a59.42272 59.42272 0 0 0-68.6592-1.792zM901.6832 109.9776V410.4192L665.6 233.8816a59.58656 59.58656 0 0 0-68.7104-1.8432L467.5072 318.464a59.4688 59.4688 0 0 1-61.9008 2.56l-293.7856-162.7136v-48.384c0-66.8672 53.7088-121.088 120.0128-121.088h549.7856c66.3552 0.1024 120.064 54.272 120.064 121.1392zM665.6 233.8816a59.58656 59.58656 0 0 0-68.7104-1.8432L467.5072 318.464a59.4688 59.4688 0 0 1-61.9008 2.56l-258.8672-143.36v-42.7008c0-68.864 48.3328-124.672 107.9296-124.672h494.5408c59.5968 0 107.9296 55.808 107.9296 124.672v242.176L665.6 233.8816zM819.0976 160V348.672L665.6 233.8816a59.58656 59.58656 0 0 0-68.7104-1.8432L467.5072 318.464a59.4688 59.4688 0 0 1-61.9008 2.56l-230.7072-127.7952v-33.28c0-66.304 43.8272-120.0128 97.8432-120.0128h448.4096c54.1184 0.0512 97.9456 53.8112 97.9456 120.064z"  horiz-adv-x="1024" />
      
      <glyph glyph-name="jisuanqi" unicode="&#59563;" d="M910.6 48.2H175.1c-27.4 0-49.6 22.3-49.6 49.6V593.4c0 27.4 22.3 49.6 49.6 49.6h735.4c27.4 0 49.6-22.3 49.6-49.6v-495.6c0.1-27.3-22.2-49.6-49.5-49.6zM864.1 111.4H152.8c-26.5 0-48 21.5-48 47.9V637.5c0 26.4 21.5 47.9 48 47.9h711.3c26.5 0 48-21.5 48-47.9v-478.2c0-26.4-21.6-47.9-48-47.9zM862.4 97.8H127c-34.8 0-63.2 28.3-63.2 63.2V656.6c0 34.8 28.3 63.2 63.2 63.2h735.4c34.8 0 63.2-28.3 63.2-63.2V161c0-34.8-28.3-63.2-63.2-63.2zM127 692.7c-19.9 0-36.1-16.2-36.1-36.1V161c0-19.9 16.2-36.1 36.1-36.1h735.4c19.9 0 36.1 16.2 36.1 36.1V656.6c0 19.9-16.2 36.1-36.1 36.1H127zM839.8 487.9H149.6c-11.7 0-21.2 9.5-21.2 21.2V627.5c0 11.7 9.5 21.2 21.2 21.2h690.1c11.7 0 21.2-9.5 21.2-21.2V509c0-11.7-9.5-21.1-21.1-21.1zM860.9 619.7h-30L697.6 486.3h51.3l112 112zM613.2 486.3h51.3l133.3 133.4h-51.2zM860.9 617.2H128.5v10.3c0 11.7 9.5 21.2 21.2 21.2h690.1c11.7 0 21.2-9.5 21.2-21.2v-10.3zM482.4 455.7H151.2c-10.1 0-18.3-8.2-18.3-18.3V322c0-4.3 3.5-7.8 7.8-7.8h341.7c4.3 0 7.8 3.5 7.8 7.8V447.9c0 4.3-3.5 7.8-7.8 7.8zM132.9 288.6v-115.4c0-10.1 8.2-18.3 18.3-18.3h331.2c4.3 0 7.8 3.5 7.8 7.8V288.6c0 4.3-3.5 7.8-7.8 7.8H140.7c-4.3 0-7.8-3.5-7.8-7.8zM865.4 322V437.4c0 10.1-8.2 18.3-18.3 18.3H515.9c-4.3 0-7.8-3.5-7.8-7.8V322c0-4.3 3.5-7.8 7.8-7.8h341.7c4.3 0 7.8 3.5 7.8 7.8zM515.9 154.8h331.2c10.1 0 18.3 8.2 18.3 18.3V288.5c0 4.3-3.5 7.8-7.8 7.8H515.9c-4.3 0-7.8-3.5-7.8-7.8v-125.9c0-4.3 3.5-7.8 7.8-7.8zM340.7 384.9l12.1 12.2c8 8 8 21.1 0 29.1s-21.1 8-29.1 0L311.6 414l-12.2 12.1c-8 8-21.1 8-29.1 0s-8-21.1 0-29.1l12.1-12.2-12.1-12.1c-8-8-8-21.1 0-29.1s21.1-8 29.1 0l12.2 12.2 12.1-12.2c8-8 21.1-8 29.1 0s8 21.1 0 29.1l-12.1 12.2z m386 21.8h-80c-12 0-21.8-9.8-21.8-21.8s9.8-21.8 21.8-21.8h80c12 0 21.8 9.8 21.8 21.8s-9.8 21.8-21.8 21.8zM362.8 205.1H260.3c-3.7 0-6.8 3.1-6.8 6.8v27.3c0 3.7 3.1 6.8 6.8 6.8h102.5c3.7 0 6.8-3.1 6.8-6.8v-27.3c0.1-3.7-3-6.8-6.8-6.8zM291.1 174.3V276.8c0 3.7 3.1 6.8 6.8 6.8h27.3c3.7 0 6.8-3.1 6.8-6.8v-102.5c0-3.7-3.1-6.8-6.8-6.8h-27.3c-3.7 0-6.8 3.1-6.8 6.8zM726.7 275.9h-80c-12 0-21.8-9.8-21.8-21.8s9.8-21.8 21.8-21.8h80c12 0 21.8 9.8 21.8 21.8s-9.8 21.8-21.8 21.8z m0-57.1h-80c-12 0-21.8-9.8-21.8-21.8s9.8-21.8 21.8-21.8h80c12 0 21.8 9.8 21.8 21.8s-9.8 21.8-21.8 21.8zM839.8 486.3H149.6c-12.5 0-22.7 10.2-22.7 22.7V627.5c0 12.5 10.2 22.7 22.7 22.7h690.1c12.5 0 22.7-10.2 22.7-22.7V509c0-12.5-10.1-22.7-22.6-22.7zM149.6 647.2c-10.8 0-19.7-8.8-19.7-19.7V509c0-10.8 8.8-19.7 19.7-19.7h690.1c10.8 0 19.7 8.8 19.7 19.7V627.5c0 10.8-8.8 19.7-19.7 19.7H149.6z"  horiz-adv-x="1024" />
      
      <glyph glyph-name="kabao" unicode="&#59564;" d="M910.5 66.633H175.2c-27.4 0-49.6 22.3-49.6 49.6v495.5c0 27.4 22.3 49.6 49.6 49.6h735.3c27.4 0 49.6-22.3 49.6-49.6v-495.5c0-27.4-22.2-49.6-49.6-49.6zM870.7 717.033H118.6c-15.3 0-27.7-12.4-27.7-27.7v-512.3c0-15.3 12.4-27.7 27.7-27.7h752.1c15.3 0 27.7 12.4 27.7 27.7v512.3c0 15.2-12.4 27.7-27.7 27.7zM870.7 744.033H118.6c-30.2 0-54.7-24.6-54.7-54.7v-512.3c0-30.2 24.6-54.7 54.7-54.7h752.1c30.2 0 54.7 24.6 54.7 54.7v512.3c0.1 30.2-24.5 54.7-54.7 54.7z m27.7-567c0-15.3-12.4-27.7-27.7-27.7H118.6c-15.3 0-27.7 12.4-27.7 27.7v512.3c0 15.3 12.4 27.7 27.7 27.7h752.1c15.3 0 27.7-12.4 27.7-27.7v-512.3zM834 371.533H157.3c-14.5 0-26.3 11.8-26.3 26.3v263.2c0 14.5 11.8 26.3 26.3 26.3H834c14.5 0 26.3-11.8 26.3-26.3v-263.2c0-14.5-11.8-26.3-26.3-26.3zM90.3 443.733H898v-210.5H90.3zM834 308.333H157.3c-14.5 0-26.3 11.8-26.3 26.3v263.2c0 14.5 11.8 26.3 26.3 26.3H834c14.5 0 26.3-11.8 26.3-26.3v-263.2c0-14.5-11.8-26.3-26.3-26.3zM834 302.333H157.3c-14.5 0-26.3 11.8-26.3 26.3v263.2c0 14.5 11.8 26.3 26.3 26.3H834c14.5 0 26.3-11.8 26.3-26.3v-263.2c0-14.5-11.8-26.3-26.3-26.3zM834 245.233H157.3c-14.5 0-26.3 11.8-26.3 26.3v263.2c0 14.5 11.8 26.3 26.3 26.3H834c14.5 0 26.3-11.8 26.3-26.3v-263.2c0-14.5-11.8-26.3-26.3-26.3zM834 239.233H157.3c-14.5 0-26.3 11.8-26.3 26.3v263.1c0 14.5 11.8 26.3 26.3 26.3H834c14.5 0 26.3-11.8 26.3-26.3v-263.2c0-14.5-11.8-26.2-26.3-26.2zM834 182.033H157.3c-14.5 0-26.3 11.8-26.3 26.3v263.2c0 14.5 11.8 26.3 26.3 26.3H834c14.5 0 26.3-11.8 26.3-26.3v-263.2c0-14.5-11.8-26.3-26.3-26.3zM834 176.033H157.3c-14.5 0-26.3 11.8-26.3 26.3v263.2c0 14.5 11.8 26.3 26.3 26.3H834c14.5 0 26.3-11.8 26.3-26.3v-263.2c0-14.5-11.8-26.3-26.3-26.3zM860.3 443.733H614.5c-18.6 0-33.2-15.3-33.2-33.9 0-1.5 0-3.1-0.1-4.6-2.1-44-37.6-80-81.5-82.7-50.6-3.1-92.6 37-92.6 86.9v0.4c0.1 18.6-14.5 33.9-33.2 33.9h-243v-232.4c0-14.5 11.8-26.3 26.3-26.3H834c14.5 0 26.3 11.8 26.3 26.3v232.4zM616.8 431.733c-11.4 0-20.4-9.4-20.4-20.8v-0.2c0-56.5-45.7-102.4-102.2-102.4s-102.2 45.8-102.2 102.3v0.2c0 11.4-9 20.8-20.4 20.8H90.3v-250.5c0-17.8 14.5-32.3 32.3-32.3h743.1c17.8 0 32.3 14.5 32.3 32.3v250.6H616.8z"  horiz-adv-x="1024" />
      
      <glyph glyph-name="duanxin1" unicode="&#59565;" d="M910.6 652.7h-735c-27.4 0-49.6-22.3-49.6-49.6v-495.3c0-27.4 22.3-49.6 49.6-49.6h507.1L802.6-11c14.5-8.4 32.6 2.1 32.6 18.9v50.4h75.4c27.4 0 49.6 22.3 49.6 49.6V603.1c0 27.3-22.3 49.6-49.6 49.6zM870.8 708.3H118.9c-15.3 0-27.7-12.4-27.7-27.7v-512.2c0-15.3 12.4-27.7 27.7-27.7h751.9c15.3 0 27.7 12.4 27.7 27.7V680.6c0 15.3-12.4 27.7-27.7 27.7zM870.8 735.4H118.9c-30.2 0-54.7-24.5-54.7-54.7v-512.2c0-30.2 24.5-54.7 54.7-54.7h519.2c1.5-1.6 3.2-3.1 5.3-4.3L784.5 28c14.5-8.4 32.6 2.1 32.6 18.9v66.9h53.6c30.2 0 54.7 24.5 54.7 54.7V680.6c0.1 30.2-24.4 54.8-54.6 54.8z m27.7-566.9c0-15.3-12.4-27.7-27.7-27.7H118.9c-15.3 0-27.7 12.4-27.7 27.7V680.6c0 15.3 12.4 27.7 27.7 27.7h751.9c15.3 0 27.7-12.4 27.7-27.7v-512.1zM655.6 500H222.7c-9.3 0-17 7.6-17 17 0 9.3 7.6 17 17 17h432.9c9.3 0 17-7.6 17-17 0-9.3-7.7-17-17-17z m106.5-97.2H222.7c-9.3 0-17 7.6-17 17 0 9.3 7.6 17 17 17h539.4c9.3 0 17-7.6 17-17 0-9.3-7.7-17-17-17z m0-97.2H222.7c-9.3 0-17 7.6-17 17 0 9.3 7.6 17 17 17h539.4c9.3 0 17-7.6 17-17 0-9.3-7.7-17-17-17zM652 509H219.2c-9.3 0-17 7.6-17 17 0 9.3 7.6 17 17 17H652c9.3 0 17-7.6 17-17 0-9.3-7.6-17-17-17z m106.5-97.1H219.2c-9.3 0-17 7.6-17 17 0 9.3 7.6 17 17 17h539.4c9.3 0 17-7.6 17-17-0.1-9.4-7.7-17-17.1-17z m0-97.2H219.1c-9.3 0-17 7.6-17 17 0 9.3 7.6 17 17 17h539.4c9.3 0 17-7.6 17-17s-7.6-17-17-17zM615.406 160.5l132.375-76.406c13.594-7.875 30.563 1.968 30.563 17.718v62.72H610.53c1.313-1.595 3-3 4.875-4.032z"  horiz-adv-x="1024" />
      
      <glyph glyph-name="shangcheng" unicode="&#59566;" d="M314.1 14.3c30.7 0 55.6 24.9 55.6 55.6H258.6c0-30.7 24.9-55.6 55.5-55.6z m444.6 0c30.7 0 55.5 24.9 55.5 55.6H703.1c0-14.7 5.9-28.9 16.3-39.3 10.5-10.5 24.6-16.3 39.3-16.3zM910.8 61.5H175c-27.4 0-49.7 22.3-49.7 49.7V607c0 27.4 22.3 49.7 49.7 49.7h735.8c27.4 0 49.7-22.3 49.7-49.7v-495.8c0-27.4-22.3-49.7-49.7-49.7zM275 65.4c30.7 0 55.6 24.9 55.6 55.6H219.5c0-30.7 24.8-55.6 55.5-55.6z m444.6 0c30.7 0 55.5 24.9 55.5 55.6H664c0-14.7 5.9-28.9 16.3-39.3 10.4-10.4 24.6-16.3 39.3-16.3zM386.2 732.3v41.9h222.2v-41.9H664v41.9c0 14.7-5.9 28.9-16.3 39.3-10.4 10.4-24.6 16.3-39.3 16.3H386.2c-14.7 0-28.9-5.9-39.3-16.3-10.4-10.4-16.3-24.6-16.3-39.3v-41.9h55.6z m444 0v21.1c0 5.9-2.4 11.6-6.6 15.7-4.2 4.2-9.8 6.5-15.7 6.5h-66.7c-12.2 0-22.2-9.9-22.2-22.2v-21.1h111.2z m-554.6 0v21.1c0 12.3-10 22.2-22.2 22.2h-66.7c-12.2 0-22.2-9.9-22.2-22.2v-21.1h111.1zM871 712.3H118.3c-15.3 0-27.7-12.4-27.7-27.7v-512.7c0-15.3 12.4-27.7 27.7-27.7H871c15.3 0 27.7 12.4 27.7 27.7V684.6c0 15.3-12.5 27.7-27.7 27.7zM118.3 712.3c-15.3 0-27.7-12.4-27.7-27.7v-512.7c0-15.3 12.4-27.7 27.7-27.7h104.9V712.3H118.3zM310.5 712.3h358.2v-568.1H310.5zM871 712.3H756v-568.1h115c15.3 0 27.7 12.4 27.7 27.7V684.6c0 15.3-12.5 27.7-27.7 27.7zM223.2 712.3h87.3v-568.1h-87.3z m445.5 0H756v-568.1h-87.3zM871 739.4H118.3c-30.2 0-54.8-24.6-54.8-54.8v-512.7c0-30.2 24.6-54.8 54.8-54.8H871c30.2 0 54.8 24.6 54.8 54.8V684.6c0 30.2-24.6 54.8-54.8 54.8z m27.7-567.5c0-15.3-12.4-27.7-27.7-27.7H118.3c-15.3 0-27.7 12.4-27.7 27.7V684.6c0 15.3 12.4 27.7 27.7 27.7H871c15.3 0 27.7-12.4 27.7-27.7v-512.7z"  horiz-adv-x="1024" />
      
      <glyph glyph-name="rili" unicode="&#59567;" d="M910.5 49.8H175.2c-27.4 0-49.6 22.3-49.6 49.6V594.9c0 27.4 22.3 49.6 49.6 49.6h735.3c27.4 0 49.6-22.3 49.6-49.6v-495.5c0-27.3-22.3-49.6-49.6-49.6zM862.3 704.7H127.1c-27.4 0-49.6-22.3-49.6-49.6v-138.2H912V655c0 27.4-22.3 49.7-49.7 49.7zM77.5 516.9H912v-203.5H77.5zM127.1 109.9h735.3c27.4 0 49.6 22.3 49.6 49.6V322.4H77.5v-162.9c0-27.3 22.2-49.6 49.6-49.6zM862.3 152.1H127.1c-27.4 0-49.6 22.3-49.6 49.6v-42.1c0-27.4 22.3-49.6 49.6-49.6h735.3c27.4 0 49.6 22.3 49.6 49.6v42.1c0-27.4-22.3-49.6-49.7-49.6zM862.3 96.4H127.1c-34.8 0-63.2 28.3-63.2 63.2V655c0 34.8 28.3 63.2 63.2 63.2h735.3c34.8 0 63.2-28.3 63.2-63.2v-495.5c-0.1-34.8-28.4-63.1-63.3-63.1zM127.1 691.1c-19.9 0-36.1-16.2-36.1-36.1v-495.5c0-19.9 16.2-36.1 36.1-36.1h735.3c19.9 0 36.1 16.2 36.1 36.1V655c0 19.9-16.2 36.1-36.1 36.1H127.1zM484.9 649.9v-90.7H477v6.3h-72.8v-6.3h-7.9v90.7h88.6z m-80.7-77.5H477v18.8h-18.1c-6.9 0-10.4 3.3-10.4 10v41.6h-15.8v-23.2c-0.3-15.2-6.6-26.4-18.8-33.5l-6.4 5.6c11.5 5.8 17.3 15.1 17.5 27.8v23.2h-20.8v-70.3z m52 70.4V603c0-3 1.6-4.4 4.8-4.4h16v44.3h-20.8z m72-50.8c-1.3-14.1-5.5-25.7-12.5-34.9l-6 5.4c7.1 9.7 10.7 22 10.9 37v52.8h62v-84.7c0-6.2-3.1-9.3-9.2-9.3h-14l-2.2 7.7c6.6-0.3 11.2-0.4 13.6-0.4 2.5 0 3.8 1.6 3.8 4.8V592h-46.4z m46.6 34v19h-46.2v-19h46.2z m-46.2-7.2v-19.5h46.2v19.5h-46.2zM428.3 454.5v-214.6h-35.2V412.2c-13-11.8-29.4-20.5-49-26.2v34.9c9.4 2.4 19.7 6.6 31 12.6 10.6 6.4 19.5 13.4 26.8 21h26.4z m214.3-24c13.8-18.6 20.7-44.4 20.7-77.2 0-34.7-7.3-63-21.9-85.1-14.6-21.6-34.4-32.5-59.2-32.5-42.3 0-66 19.5-71.2 58.6h34.3c4.2-19.8 16.6-29.8 37.3-29.8 14 0 25.4 7 34.3 21 8.2 13.4 12.3 30 12.3 49.6v2.7h-1.5c-6.4-8.8-13.9-15.3-22.5-19.5-8.6-4-18.2-6-28.9-6-21.2 0-38.2 6.9-50.8 20.7-12.4 13-18.6 30.2-18.6 51.4 0 21.6 7.2 39.4 21.6 53.2 14.2 14 32.3 21 54.1 21 26.1 0.2 46.2-9.3 60-28.1zM553 417c-7.6-8.2-11.4-19-11.4-32.5 0-13.4 3.8-23.9 11.4-31.6 7.4-8 17.6-12 30.7-12 12.8 0 23 4 30.7 12 7.4 8.4 11.1 19.3 11.1 32.8 0 13.6-3.9 24.3-11.7 32.2s-17.8 11.7-30.1 11.7c-12.6 0-22.9-4.2-30.7-12.6z"  horiz-adv-x="1024" />
      
      <glyph glyph-name="shezhi1" unicode="&#59568;" d="M320.1 641.4H166.9c-22.7 0-41.2-18.4-41.2-41.2v-512.1c0-22.7 18.4-41.2 41.2-41.2h751.8c22.7 0 41.2 18.4 41.2 41.2V600.2c0 22.7-18.4 41.2-41.2 41.2H320.1zM277.9 255.8l191.5-142.7 221.2 157.6-195.9 139.6zM272 569v-308.9l5.9-4.3 216.8 154.5zM272 707.5H111.9c-10.7 0-15.1-13.7-6.4-19.9L272 569l216.3-154.2c3.8-2.7 8.9-2.7 12.7 0l382.8 272.8c8.7 6.2 4.3 19.9-6.4 19.9H272zM469.4 113.1h410.5c9.9 0 14 12.8 5.9 18.5L690.6 270.7 469.4 113.1zM494.7 410.3l195.9-139.6 197-140.4c10.1-7.2 24.2 0 24.2 12.5V671.3c0 15.2-17.2 24-29.5 15.2L494.7 410.3zM272 569L97.2 693.6c-8.2 5.9-19.6 0-19.6-10.1V405L272 260.1V569zM277.9 255.8l-5.8 4.4L77.6 405v-239.7c0-28.8 23.4-52.2 52.2-52.2h339.6L277.9 255.8zM870.6 99.5H118.8c-30.2 0-54.7 24.5-54.7 54.7V666.4c0 30.2 24.5 54.7 54.7 54.7h751.8c30.2 0 54.7-24.5 54.7-54.7v-512.1c0-30.2-24.5-54.8-54.7-54.8zM118.8 694c-15.3 0-27.7-12.4-27.7-27.7v-512.1c0-15.3 12.4-27.7 27.7-27.7h751.8c15.3 0 27.7 12.4 27.7 27.7V666.4c0 15.3-12.4 27.7-27.7 27.7H118.8z"  horiz-adv-x="1024" />
      
      <glyph glyph-name="naozhong" unicode="&#59569;" d="M319.1 642.9H165.6c-22.8 0-41.3-18.5-41.3-41.3v-513.1c0-22.8 18.5-41.3 41.3-41.3h753.1c22.8 0 41.3 18.5 41.3 41.3V601.6c0 22.8-18.5 41.3-41.3 41.3H319.1zM293.3 686.1H144.6c-22.1 0-40-17.8-40-39.8v-494.9c0-22 17.9-39.8 40-39.8h729.7c22.1 0 40 17.8 40 39.8V646.2c0 22-17.9 39.8-40 39.8h-581zM871.9 98H118.8C88.6 98 64 122.6 64 152.8v513c0 30.2 24.6 54.8 54.8 54.8H872c30.2 0 54.8-24.6 54.8-54.8v-513c-0.1-30.2-24.7-54.8-54.9-54.8zM118.8 693.6c-15.3 0-27.7-12.4-27.7-27.7v-513c0-15.3 12.4-27.7 27.7-27.7H872c15.3 0 27.7 12.4 27.7 27.7v513c0 15.3-12.4 27.7-27.7 27.7H118.8zM300.6 651.9H166.7c-19.9 0-36-15-36-33.6v-417.9c0-18.6 16.1-33.6 36-33.6H824c19.9 0 36 15 36 33.6V618.3c0 18.6-16.1 33.6-36 33.6H300.6zM479.2 597.2a15.4 15.4 0 1 1 30.8 0 15.4 15.4 0 1 1-30.8 0zM392.8 570.9a6.7 6.7 0 1 1 13.4 0 6.7 6.7 0 1 1-13.4 0zM324.9 501.3a6.7 6.7 0 1 1 13.4 0 6.7 6.7 0 1 1-13.4 0zM327.1 313.5a6.7 6.7 0 1 1 13.4 0 6.7 6.7 0 1 1-13.4 0zM396.7 245.6a6.7 6.7 0 1 1 13.4 0 6.7 6.7 0 1 1-13.4 0zM584.5 247.8a6.7 6.7 0 1 1 13.4 0 6.7 6.7 0 1 1-13.4 0zM652.4 317.4a6.7 6.7 0 1 1 13.4 0 6.7 6.7 0 1 1-13.4 0zM650.1 505.2a6.7 6.7 0 1 1 13.4 0 6.7 6.7 0 1 1-13.4 0zM580.6 573.1a6.7 6.7 0 1 1 13.4 0 6.7 6.7 0 1 1-13.4 0zM292.1 407.1a15.4 15.4 0 1 1 30.8 0 15.4 15.4 0 1 1-30.8 0zM478.9 221.5a15.4 15.4 0 1 1 30.8 0 15.4 15.4 0 1 1-30.8 0zM667.7 411.6a15.4 15.4 0 1 1 30.8 0 15.4 15.4 0 1 1-30.8 0zM496.6 410.1h-4c-0.6 0-1 0.5-1 1V559.8c0 0.6 0.4 1 1 1h4c0.5 0 1-0.4 1-1v-148.7c0-0.5-0.4-1-1-1zM494.3 408.5v6.3c0 0.5 0.4 1 1 1h92.5c0.5 0 1-0.5 1-1v-6.3c0-0.5-0.5-1-1-1h-92.5c-0.6 0-1 0.4-1 1zM537.5 458.5l2.1-2.1c0.3-0.3 0.3-0.8 0-1.1L402.3 318c-0.3-0.3-0.8-0.3-1.1 0l-2.1 2.1c-0.3 0.3-0.3 0.8 0 1.1l137.3 137.3c0.3 0.3 0.8 0.3 1.1 0zM475.4 411.6a19.2 19.2 0 1 1 38.4 0 19.2 19.2 0 1 1-38.4 0zM512.9 308.1c-5.5-6.9-4.4-17 2.5-22.5s17-4.4 22.5 2.5l290.4 363.8h-41L512.9 308.1z m78.2 343.8h-41L166.7 171.6c-1.2-1.4-2-3-2.6-4.7h39.8l387.2 485z"  horiz-adv-x="1024" />
      
      <glyph glyph-name="tianqi" unicode="&#59570;" d="M910.3 59.4H173.1c-27.4 0-49.8 22.3-49.8 49.8V606.1c0 27.4 22.3 49.8 49.8 49.8h737.3c27.4 0 49.8-22.3 49.8-49.8v-496.8c-0.1-27.5-22.4-49.9-49.9-49.9zM272.5 695H118.8c-22.8 0-41.3-18.5-41.3-41.3V140c0-22.8 18.5-41.3 41.3-41.3H873c22.8 0 41.3 18.5 41.3 41.3V653.7c0 22.8-18.5 41.3-41.3 41.3H272.5zM722.1 689.5L568.6 536.1c-2.8-2.8-7.3-2.8-10 0-2.8 2.8-2.8 7.3 0 10L712 699.6c2.8 2.8 7.3 2.8 10 0 2.8-2.8 2.8-7.3 0.1-10.1z m195.3-370.1L754.3 156.3c-2.8-2.8-7.3-2.8-10 0-2.8 2.8-2.8 7.3 0 10l163.1 163.1c2.8 2.8 7.3 2.8 10 0 2.7-2.7 2.7-7.2 0-10z m-634 193.4c2.8 2.8 7.3 2.8 10 0 2.8-2.8 2.8-7.3 0-10L139.9 349.3c-2.8-2.8-7.3-2.8-10 0-2.8 2.8-2.8 7.3 0 10m190.2-114.9l-149-149c-2.8-2.8-7.3-2.8-10 0-2.8 2.8-2.8 7.3 0 10l149 149c2.8 2.8 7.3 2.8 10 0 2.7-2.7 2.7-7.2 0-10zM873 85H118.8c-30.3 0-54.9 24.6-54.9 54.9V653.7c0 30.3 24.6 54.9 54.9 54.9H873c30.3 0 54.9-24.6 54.9-54.9V140c-0.1-30.3-24.7-55-54.9-55zM118.8 681.4c-15.3 0-27.7-12.4-27.7-27.7V140c0-15.3 12.4-27.7 27.7-27.7H873c15.3 0 27.7 12.4 27.7 27.7V653.7c0 15.3-12.4 27.7-27.7 27.7H118.8zM499.8 235.8c4.8-4.3 7.2-10 7.2-16.8 0-6.6-2.5-12.7-7.6-18.3-2.8-3-8.2-7.2-16.1-12.5-7.9-5.2-12.7-9.8-14.4-13.7H507v-11.2h-54c0 8 2.6 14.8 7.7 20.6 2.8 3.3 8.8 8 17.8 14.2 4.7 3.3 8.3 6.2 10.6 8.7 3.4 3.8 5.1 7.9 5.1 12.3 0 4.2-1.1 7.3-3.4 9.4-2.2 2-5.6 3-10.1 3-4.8 0-8.4-1.6-10.7-4.9-2.4-3-3.7-7.6-3.9-13.8h-12.7c0.1 8.7 2.7 15.7 7.6 21 5.1 5.6 11.9 8.5 20.2 8.5 7.5 0 13.7-2.1 18.6-6.5z m53.9 5v-77.5H541v62.2c-4.7-4.3-10.6-7.4-17.7-9.4v12.6c3.4 0.9 7.1 2.4 11.2 4.6 3.8 2.3 7.1 4.9 9.7 7.6h9.5z m52 8.9c2.8-2.6 4.1-5.9 4.1-9.8 0-3.8-1.4-7-4.1-9.8-2.8-2.8-6-4.1-9.8-4.1-3.9 0-7.2 1.4-9.8 4.1-2.8 2.7-4.1 5.9-4.1 9.8 0 4 1.4 7.2 4.1 9.8 2.5 2.7 5.8 4.1 9.8 4.1 3.9 0 7.1-1.3 9.8-4.1z m-15-4.5c-1.4-1.4-2.2-3.1-2.2-5.2 0-2 0.7-3.8 2.2-5.2 1.4-1.4 3.2-2.2 5.2-2.2 1.9 0 3.6 0.7 5.2 2.2 1.4 1.6 2.2 3.3 2.2 5.2 0 2-0.7 3.8-2.2 5.2-1.4 1.4-3.2 2.2-5.2 2.2-2-0.1-3.8-0.8-5.2-2.2zM229.7 479.6a113 113 0 1 1 226 0 113 113 0 1 1-226 0zM256 479.6a86.7 86.7 0 1 1 173.4 0 86.7 86.7 0 1 1-173.4 0zM622 470.9c-4.7 0-8.9 2.7-10.8 6.8-17.5 38.4-57.7 64.2-103.5 60.4-47.1-3.9-86.2-40.1-93.7-86.8-1-6.1-1-14.7-0.8-22.1 0.2-7.8-5-14.7-12.6-16.5-26.2-6.1-45.9-29.8-45.9-57.8 0-32.7 26.7-59.4 59.4-59.4H622c48.4 0 87.7 39.3 87.7 87.7 0 48.4-39.3 87.7-87.7 87.7zM604.5 451.4c-3.8 0-7.1 2.1-8.7 5.5-14.1 30.9-46.5 51.7-83.4 48.7-37.9-3.2-69.4-32.3-75.5-69.9-0.8-4.9-0.8-11.8-0.6-17.8 0.2-6.3-4-11.8-10.2-13.3-21.1-4.9-37-24-37-46.6 0-26.3 21.5-47.8 47.8-47.8h167.5c39 0 70.6 31.6 70.6 70.6s-31.5 70.6-70.5 70.6zM592.9 434.8c-2.8 0-5.4 1.6-6.6 4.2-10.7 23.4-35.2 39.1-63 36.8-28.7-2.4-52.5-24.5-57.1-52.9-0.6-3.7-0.6-9-0.5-13.5 0.1-4.7-3.1-8.9-7.7-10-16-3.7-28-18.2-28-35.2 0-19.9 16.3-36.2 36.2-36.2h126.6c29.5 0 53.4 23.9 53.4 53.4 0.1 29.4-23.8 53.4-53.3 53.4z"  horiz-adv-x="1024" />
      
      </font>
</defs>
</svg>
